<svg fill="#000000" xmlns="http://www.w3.org/2000/svg"  viewBox="0 0 16 16" width="50px" height="50px"><path d="M 5.5 1 A 0.50005 0.50005 0 0 0 5.21875 1.0917969 A 0.50005 0.50005 0 0 0 5.2167969 1.09375 C 4.0407503 1.2194023 3.0092833 1.9844593 2.28125 3.078125 C 1.4911227 4.2650694 1 5.7870988 1 7.2792969 C 1 9.9347211 2.8164842 11.573884 4.7285156 11.917969 C 5.4987 13.10978 6.8592505 14 8.7207031 14 C 10.212901 14 11.734931 13.508877 12.921875 12.71875 C 14.011678 11.993288 14.772099 10.965648 14.902344 9.7949219 A 0.50005 0.50005 0 0 0 15 9.5 C 15 8.1940171 14.108819 7.0713773 12.921875 6.28125 C 11.979882 5.654182 10.826221 5.2285993 9.6445312 5.0742188 C 9.3291835 4.0487945 8.826343 3.0960587 8.1679688 2.3632812 C 7.4460606 1.5597901 6.5255026 1 5.5 1 z M 5.5 2 C 6.1564974 2 6.8294862 2.3697412 7.4238281 3.03125 C 7.892563 3.5529568 8.2918103 4.2490971 8.5722656 5.0078125 C 5.6544062 5.0844854 4 7.3642971 4 9.5 C 4 9.9142566 4.0816848 10.329957 4.203125 10.738281 C 3.0039594 10.26642 2 9.1369988 2 7.2792969 C 2 6.0114949 2.4389086 4.6458681 3.1132812 3.6328125 C 3.787654 2.6197569 4.6639829 2 5.5 2 z M 8.7207031 6 C 9.9885051 6 11.354131 6.4389086 12.367188 7.1132812 C 13.380242 7.787654 14 8.6639829 14 9.5 C 14 10.336017 13.380243 11.212346 12.367188 11.886719 C 11.354131 12.561091 9.9885051 13 8.7207031 13 C 6.2109406 13 5 11.165569 5 9.5 C 5 7.8344306 6.2109406 6 8.7207031 6 z"/></svg>