<svg fill="#000000" xmlns="http://www.w3.org/2000/svg"  viewBox="0 0 16 16" width="50px" height="50px"><path d="M 7.6894531 1.0214844 C 7.3378476 1.0567403 7.0239876 1.1777037 6.7636719 1.3671875 C 6.2430405 1.7461551 5.936254 2.3048124 5.6445312 2.8710938 C 5.0610861 4.0036563 4.5701988 5.1516541 3.4960938 5.5117188 C 2.3871665 5.8828493 1.7081623 6.5824064 1.359375 7.3027344 C 1.0105877 8.0230624 0.96924113 8.7423296 1.015625 9.2460938 C 1.063542 9.771848 1.3294922 10.796598 2.2753906 11.515625 C 2.8552337 11.955698 3.6642105 12.066574 4.5488281 11.986328 C 5.0426748 12.523846 5.623981 12.98615 6.2949219 13.267578 C 8.4118577 14.154516 10.253145 14.173295 11.619141 13.664062 C 12.985136 13.154832 13.885737 12.097303 13.986328 10.90625 C 14.04522 10.212163 13.925705 9.6537867 13.615234 9.25 C 13.304764 8.8462133 12.862049 8.6517102 12.429688 8.5234375 C 11.695713 8.3056833 10.921182 8.2102677 10.253906 7.890625 C 10.861637 6.6089489 11.076693 5.3933013 10.974609 4.34375 C 10.825561 2.8113309 10.007749 1.6081044 8.8378906 1.1835938 C 8.4304554 1.0355398 8.0410587 0.98622842 7.6894531 1.0214844 z M 7.7988281 1.9921875 C 7.9753284 1.9762597 8.193529 2.0131008 8.4960938 2.1230469 C 9.2332354 2.3905362 9.8602673 3.2036222 9.9804688 4.4394531 C 10.10067 5.6752841 9.6989318 7.3164185 8.3613281 9.0898438 C 7.7183098 9.9422972 6.5540363 10.558622 5.4238281 10.832031 C 4.29362 11.105441 3.2088984 10.967716 2.8808594 10.71875 C 2.7560306 10.623612 2.6584943 10.509479 2.5644531 10.394531 C 3.4690804 10.199589 4.6930676 9.7945985 5.8789062 9.0273438 C 7.2849194 8.1176328 8.6060628 6.6859491 8.9921875 4.5898438 A 0.50005 0.50005 0 0 0 8.484375 3.9941406 A 0.50005 0.50005 0 0 0 8.0078125 4.4101562 C 7.6799372 6.1900509 6.5844244 7.3797108 5.3359375 8.1875 C 4.1582445 8.9494845 2.8631414 9.3349204 2.078125 9.4746094 C 2.0399299 9.3415946 2.018157 9.2268925 2.0117188 9.15625 A 0.50005 0.50005 0 0 0 2.0117188 9.1542969 C 1.9791025 8.8000578 2.0145529 8.2447033 2.2597656 7.7382812 C 2.5049783 7.2318592 2.9363804 6.7548068 3.8144531 6.4609375 C 5.3863481 5.9340022 5.9821484 4.3997655 6.5332031 3.3300781 C 6.8087305 2.7952344 7.0796314 2.37372 7.3515625 2.1757812 C 7.487528 2.076812 7.6223279 2.0081153 7.7988281 1.9921875 z M 9.7792969 8.7675781 C 10.657449 9.2106359 11.555581 9.3076929 12.144531 9.4824219 C 12.487419 9.5841492 12.699174 9.6992867 12.822266 9.859375 C 12.945357 10.019463 13.036342 10.278853 12.990234 10.822266 C 12.927824 11.561213 12.353239 12.323295 11.271484 12.726562 C 10.18973 13.129831 8.6127048 13.154766 6.6816406 12.345703 C 6.3638891 12.212421 6.0572929 12.011467 5.7675781 11.771484 C 6.4031065 11.608249 7.0435547 11.361034 7.6308594 11.015625 C 8.5083433 11.61013 9.4434013 12 10.5 12 A 0.50005 0.50005 0 1 0 10.5 11 C 9.7911904 11 9.1568462 10.782619 8.5039062 10.390625 C 8.7443649 10.179331 8.9666968 9.9478768 9.1601562 9.6914062 C 9.3938145 9.3816169 9.5933487 9.0734795 9.7792969 8.7675781 z"/></svg>