<?xml version="1.0"?><svg fill="#000000" xmlns="http://www.w3.org/2000/svg"  viewBox="0 0 16 16" width="50px" height="50px">    <path d="M 7.5 1 C 6.9394012 1 6.41996 1.2523688 5.9941406 1.6425781 C 5.5683212 2.0327874 5.2155425 2.5613003 4.9238281 3.1933594 C 4.3403994 4.4574774 4 6.1426509 4 8 C 4 8.102409 4.0096329 8.1994784 4.0117188 8.3007812 C 3.5538544 8.1144023 3.0482107 8.0058594 2.5 8.0058594 C 1.7893519 8.0058594 1.2915953 8.4105054 1.1191406 8.8046875 C 0.97228366 9.1403607 1.0126065 9.3684086 1.0214844 9.4550781 C 1.0210531 9.4736283 1 9.4873771 1 9.5058594 A 0.50005 0.50005 0 0 0 1.0039062 9.5683594 A 0.50005 0.50005 0 0 0 1.0117188 9.6171875 A 0.50005 0.50005 0 0 0 1.0429688 9.7128906 A 0.50005 0.50005 0 0 0 1.0605469 9.7480469 A 0.50005 0.50005 0 0 0 1.0742188 9.7714844 A 0.50005 0.50005 0 0 0 1.0839844 9.7890625 A 0.50005 0.50005 0 0 0 1.0917969 9.7988281 A 0.50005 0.50005 0 0 0 1.1171875 9.8339844 A 0.50005 0.50005 0 0 0 1.1289062 9.8476562 A 0.50005 0.50005 0 0 0 1.1464844 9.8671875 A 0.50005 0.50005 0 0 0 1.15625 9.875 A 0.50005 0.50005 0 0 0 1.1894531 9.9042969 A 0.50005 0.50005 0 0 0 1.1933594 9.9082031 A 0.50005 0.50005 0 0 0 1.2246094 9.9296875 A 0.50005 0.50005 0 0 0 1.2636719 9.953125 A 0.50005 0.50005 0 0 0 1.2734375 9.9570312 A 0.50005 0.50005 0 0 0 1.2851562 9.9628906 A 0.50005 0.50005 0 0 0 1.3125 9.9765625 A 0.50005 0.50005 0 0 0 1.3242188 9.9804688 A 0.50005 0.50005 0 0 0 1.359375 9.9921875 A 0.50005 0.50005 0 0 0 1.3945312 10 A 0.50005 0.50005 0 0 0 1.4082031 10.003906 A 0.50005 0.50005 0 0 0 1.421875 10.005859 A 0.50005 0.50005 0 0 0 1.4707031 10.011719 A 0.50005 0.50005 0 0 0 1.5214844 10.011719 A 0.50005 0.50005 0 0 0 1.5566406 10.009766 A 0.50005 0.50005 0 0 0 1.5703125 10.007812 A 0.50005 0.50005 0 0 0 1.5742188 10.007812 A 0.50005 0.50005 0 0 0 1.6191406 9.9980469 A 0.50005 0.50005 0 0 0 1.6542969 9.9882812 A 0.50005 0.50005 0 0 0 1.6679688 9.984375 A 0.50005 0.50005 0 0 0 1.7011719 9.9707031 A 0.50005 0.50005 0 0 0 1.7128906 9.9648438 A 0.50005 0.50005 0 0 0 1.7578125 9.9414062 A 0.50005 0.50005 0 0 0 1.7890625 9.921875 A 0.50005 0.50005 0 0 0 1.7988281 9.9140625 A 0.50005 0.50005 0 0 0 1.828125 9.890625 A 0.50005 0.50005 0 0 0 1.8378906 9.8828125 A 0.50005 0.50005 0 0 0 1.8632812 9.8554688 A 0.50005 0.50005 0 0 0 1.8964844 9.8183594 A 0.50005 0.50005 0 0 0 1.9042969 9.8085938 A 0.50005 0.50005 0 0 0 1.9238281 9.7773438 A 0.50005 0.50005 0 0 0 1.9316406 9.765625 A 0.50005 0.50005 0 0 0 1.9492188 9.7324219 A 0.50005 0.50005 0 0 0 1.96875 9.6875 A 0.50005 0.50005 0 0 0 1.984375 9.6386719 A 0.50005 0.50005 0 0 0 1.9941406 9.5898438 A 0.50005 0.50005 0 0 0 1.9960938 9.578125 A 0.50005 0.50005 0 0 0 1.9960938 9.5742188 C 2.2729017 9.801868 2.8661396 10.558313 3.5332031 12.308594 C 4.0844289 13.755561 5.103319 14.470388 5.9589844 14.773438 C 6.8146497 15.076485 7.5488281 15.003906 7.5488281 15.003906 A 0.50005 0.50005 0 0 0 7.5898438 14.998047 C 7.7618501 15.007987 8.3103528 15.026355 9.0410156 14.767578 C 9.896681 14.46453 10.915571 13.749702 11.466797 12.302734 C 12.133877 10.551941 12.727233 9.7938763 13.003906 9.5664062 A 0.50005 0.50005 0 0 0 13.007812 9.59375 A 0.50005 0.50005 0 0 0 13.009766 9.609375 A 0.50005 0.50005 0 0 0 13.015625 9.6367188 A 0.50005 0.50005 0 0 0 13.019531 9.6484375 A 0.50005 0.50005 0 0 0 13.037109 9.6953125 A 0.50005 0.50005 0 0 0 13.083984 9.7832031 A 0.50005 0.50005 0 0 0 13.111328 9.8203125 A 0.50005 0.50005 0 0 0 13.121094 9.8320312 A 0.50005 0.50005 0 0 0 13.142578 9.8574219 A 0.50005 0.50005 0 0 0 13.15625 9.8691406 A 0.50005 0.50005 0 0 0 13.173828 9.8867188 A 0.50005 0.50005 0 0 0 13.183594 9.8945312 A 0.50005 0.50005 0 0 0 13.224609 9.9238281 A 0.50005 0.50005 0 0 0 13.255859 9.9433594 A 0.50005 0.50005 0 0 0 13.267578 9.9492188 A 0.50005 0.50005 0 0 0 13.300781 9.9648438 A 0.50005 0.50005 0 0 0 13.347656 9.9824219 A 0.50005 0.50005 0 0 0 13.369141 9.9882812 A 0.50005 0.50005 0 0 0 13.408203 9.9980469 A 0.50005 0.50005 0 0 0 13.445312 10.003906 A 0.50005 0.50005 0 0 0 13.457031 10.005859 A 0.50005 0.50005 0 0 0 13.482422 10.005859 A 0.50005 0.50005 0 0 0 13.507812 10.007812 A 0.50005 0.50005 0 0 0 13.544922 10.005859 A 0.50005 0.50005 0 0 0 13.570312 10.001953 A 0.50005 0.50005 0 0 0 13.59375 9.9980469 A 0.50005 0.50005 0 0 0 13.632812 9.9882812 A 0.50005 0.50005 0 0 0 13.648438 9.984375 A 0.50005 0.50005 0 0 0 13.689453 9.96875 A 0.50005 0.50005 0 0 0 13.734375 9.9472656 A 0.50005 0.50005 0 0 0 13.746094 9.9414062 A 0.50005 0.50005 0 0 0 13.777344 9.921875 A 0.50005 0.50005 0 0 0 13.818359 9.8925781 A 0.50005 0.50005 0 0 0 13.828125 9.8847656 A 0.50005 0.50005 0 0 0 13.855469 9.859375 A 0.50005 0.50005 0 0 0 13.863281 9.8496094 A 0.50005 0.50005 0 0 0 13.888672 9.8222656 A 0.50005 0.50005 0 0 0 13.896484 9.8125 A 0.50005 0.50005 0 0 0 13.917969 9.78125 A 0.50005 0.50005 0 0 0 13.923828 9.7714844 A 0.50005 0.50005 0 0 0 13.943359 9.7382812 A 0.50005 0.50005 0 0 0 13.949219 9.7265625 A 0.50005 0.50005 0 0 0 13.962891 9.6933594 A 0.50005 0.50005 0 0 0 13.980469 9.6445312 A 0.50005 0.50005 0 0 0 13.996094 9.5625 A 0.50005 0.50005 0 0 0 14 9.5 C 14 9.481551 13.978936 9.4677347 13.978516 9.4492188 C 13.987416 9.3625488 14.027719 9.1345013 13.880859 8.7988281 C 13.708404 8.4046458 13.210648 8 12.5 8 C 11.951789 8 11.446146 8.108543 10.988281 8.2949219 C 10.990286 8.1954979 11 8.1004171 11 8 C 11 6.1426509 10.659601 4.4574774 10.076172 3.1933594 C 9.7844573 2.5613003 9.4316788 2.0327874 9.0058594 1.6425781 C 8.58004 1.2523688 8.0605988 1 7.5 1 z M 7.5 2 C 7.6919435 2 7.8883727 2.0840238 8.0898438 2.2148438 A 0.5 0.5 0 0 0 8 2.5 A 0.5 0.5 0 0 0 8.5 3 A 0.5 0.5 0 0 0 8.7773438 2.9160156 C 8.8629711 3.0429626 8.9410394 3.2021818 9.0214844 3.3535156 A 0.5 0.5 0 0 0 9 3.5 A 0.5 0.5 0 0 0 9.2988281 3.9570312 C 9.4272188 4.2798953 9.5378687 4.6337184 9.6347656 5.0175781 A 0.5 0.5 0 0 0 9.5 5 A 0.5 0.5 0 0 0 9 5.5 A 0.5 0.5 0 0 0 9.5 6 A 0.5 0.5 0 0 0 9.8183594 5.8867188 C 9.89438 6.342841 9.9433913 6.8248554 9.96875 7.3261719 A 0.5 0.5 0 0 0 9.5 7 A 0.5 0.5 0 0 0 9 7.5 A 0.5 0.5 0 0 0 9.5 8 A 0.5 0.5 0 0 0 9.9824219 7.6328125 C 9.9858419 7.7568048 10 7.8741263 10 8 C 10 8.3101416 9.9849261 8.6099736 9.9648438 8.90625 C 9.8972621 8.9587343 9.8221542 9.0029469 9.7578125 9.0585938 C 9.7543104 9.0616226 9.7515401 9.065322 9.7480469 9.0683594 A 0.5 0.5 0 0 0 9.5 9 A 0.5 0.5 0 0 0 9 9.5 A 0.5 0.5 0 0 0 9.0800781 9.7695312 C 8.988882 9.8802002 8.8921882 9.9902456 8.8085938 10.105469 A 0.5 0.5 0 0 0 8.5 10 A 0.5 0.5 0 0 0 8 10.5 A 0.5 0.5 0 0 0 8.28125 10.949219 C 8.2210845 11.057234 8.1566469 11.165517 8.1015625 11.273438 C 8.0614223 11.352078 8.037603 11.425542 8 11.503906 A 0.5 0.5 0 0 0 8 11.5 A 0.5 0.5 0 0 0 7.5 11 A 0.5 0.5 0 0 0 7 11.5 A 0.5 0.5 0 0 0 7 11.509766 C 6.962397 11.431402 6.9385777 11.357939 6.8984375 11.279297 C 6.8427012 11.170109 6.7777346 11.060452 6.7167969 10.951172 A 0.5 0.5 0 0 0 7 10.5 A 0.5 0.5 0 0 0 6.5 10 A 0.5 0.5 0 0 0 6.1894531 10.109375 C 6.1053247 9.9934137 6.0097974 9.8847818 5.9179688 9.7734375 A 0.5 0.5 0 0 0 6 9.5 A 0.5 0.5 0 0 0 5.5 9 A 0.5 0.5 0 0 0 5.2460938 9.0683594 C 5.2446943 9.0671465 5.2435883 9.0656646 5.2421875 9.0644531 C 5.1778458 9.0088063 5.1027379 8.9645937 5.0351562 8.9121094 C 5.014881 8.6136794 5 8.3115832 5 8 C 5 7.8734583 5.014122 7.7554991 5.0175781 7.6308594 A 0.5 0.5 0 0 0 5.5 8 A 0.5 0.5 0 0 0 6 7.5 A 0.5 0.5 0 0 0 5.5 7 A 0.5 0.5 0 0 0 5.03125 7.3242188 C 5.0566467 6.8235989 5.1057184 6.3422507 5.1816406 5.8867188 A 0.5 0.5 0 0 0 5.5 6 A 0.5 0.5 0 0 0 6 5.5 A 0.5 0.5 0 0 0 5.5 5 A 0.5 0.5 0 0 0 5.3652344 5.0175781 C 5.4619639 4.6343815 5.5730517 4.2814069 5.7011719 3.9589844 A 0.5 0.5 0 0 0 6 3.5 A 0.5 0.5 0 0 0 5.9785156 3.3515625 C 6.058709 3.2008227 6.13732 3.042531 6.2226562 2.9160156 A 0.5 0.5 0 0 0 6.5 3 A 0.5 0.5 0 0 0 7 2.5 A 0.5 0.5 0 0 0 6.9101562 2.2148438 C 7.1116273 2.0840238 7.3080565 2 7.5 2 z M 7.5 3 A 0.5 0.5 0 0 0 7 3.5 A 0.5 0.5 0 0 0 7.5 4 A 0.5 0.5 0 0 0 8 3.5 A 0.5 0.5 0 0 0 7.5 3 z M 6.5 4 A 0.5 0.5 0 0 0 6 4.5 A 0.5 0.5 0 0 0 6.5 5 A 0.5 0.5 0 0 0 7 4.5 A 0.5 0.5 0 0 0 6.5 4 z M 8.5 4 A 0.5 0.5 0 0 0 8 4.5 A 0.5 0.5 0 0 0 8.5 5 A 0.5 0.5 0 0 0 9 4.5 A 0.5 0.5 0 0 0 8.5 4 z M 7.5 5 A 0.5 0.5 0 0 0 7 5.5 A 0.5 0.5 0 0 0 7.5 6 A 0.5 0.5 0 0 0 8 5.5 A 0.5 0.5 0 0 0 7.5 5 z M 6.5 6 A 0.5 0.5 0 0 0 6 6.5 A 0.5 0.5 0 0 0 6.5 7 A 0.5 0.5 0 0 0 7 6.5 A 0.5 0.5 0 0 0 6.5 6 z M 8.5 6 A 0.5 0.5 0 0 0 8 6.5 A 0.5 0.5 0 0 0 8.5 7 A 0.5 0.5 0 0 0 9 6.5 A 0.5 0.5 0 0 0 8.5 6 z M 7.5 7 A 0.5 0.5 0 0 0 7 7.5 A 0.5 0.5 0 0 0 7.5 8 A 0.5 0.5 0 0 0 8 7.5 A 0.5 0.5 0 0 0 7.5 7 z M 6.5 8 A 0.5 0.5 0 0 0 6 8.5 A 0.5 0.5 0 0 0 6.5 9 A 0.5 0.5 0 0 0 7 8.5 A 0.5 0.5 0 0 0 6.5 8 z M 8.5 8 A 0.5 0.5 0 0 0 8 8.5 A 0.5 0.5 0 0 0 8.5 9 A 0.5 0.5 0 0 0 9 8.5 A 0.5 0.5 0 0 0 8.5 8 z M 7.5 9 A 0.5 0.5 0 0 0 7 9.5 A 0.5 0.5 0 0 0 7.5 10 A 0.5 0.5 0 0 0 8 9.5 A 0.5 0.5 0 0 0 7.5 9 z M 12.015625 9.1894531 C 11.546286 9.7394197 11.076619 10.521036 10.533203 11.947266 C 10.084429 13.125298 9.353319 13.59797 8.7089844 13.826172 C 8.4453637 13.919542 8.4280838 13.875977 8.234375 13.898438 C 8.3428331 13.434518 8.4412787 12.805895 8.9921875 11.726562 C 9.3555895 11.014591 9.8294428 10.318645 10.410156 9.8164062 C 10.856253 9.4305927 11.428098 9.2959407 12.015625 9.1894531 z M 2.9824219 9.1953125 C 3.5707585 9.3015576 4.1432759 9.4360448 4.5898438 9.8222656 C 5.1705577 10.324505 5.6444105 11.020451 6.0078125 11.732422 C 6.5587213 12.811753 6.6571669 13.440378 6.765625 13.904297 C 6.5719162 13.881847 6.5546363 13.925401 6.2910156 13.832031 C 5.646681 13.603833 4.9155711 13.131157 4.4667969 11.953125 C 3.922881 10.525966 3.4521415 9.7451409 2.9824219 9.1953125 z M 7.15625 11.861328 A 0.5 0.5 0 0 0 7.5 12 A 0.5 0.5 0 0 0 7.8398438 11.867188 C 7.7113851 12.16111 7.5929216 12.435367 7.4980469 12.703125 C 7.4024853 12.433885 7.2857232 12.156736 7.15625 11.861328 z"/></svg>