<svg fill="#000000" xmlns="http://www.w3.org/2000/svg"  viewBox="0 0 16 16" width="50px" height="50px"><path d="M 7.875 2 C 5.599859 2 4.0447029 3.2434482 3.15625 4.8105469 C 2.2677971 6.3776455 1.969956 8.2586174 2 9.7597656 C 2.014682 10.505387 2.098636 11.155349 2.2792969 11.666016 C 2.3591129 11.892589 2.4081556 12.052952 2.4121094 12.115234 C 2.4160594 12.177514 2.4385196 12.147414 2.3535156 12.232422 L 2.2929688 12.292969 C 1.9070296 12.678908 1.9063602 13.318294 2.2910156 13.705078 C 2.2910156 13.705078 2.2929688 13.705078 2.2929688 13.705078 C 2.2929688 13.705078 2.2929688 13.707031 2.2929688 13.707031 C 2.4858553 13.900782 2.7452458 14 3 14 C 3.2541042 14 3.350328 13.922833 3.4492188 13.873047 C 3.5481093 13.823261 3.625 13.773438 3.625 13.773438 L 3.6699219 13.746094 L 3.7070312 13.707031 C 3.8099426 13.60412 3.8159607 13.614011 3.8886719 13.613281 C 3.9579834 13.612581 4.1176207 13.651171 4.3300781 13.71875 A 0.50005 0.50005 0 0 0 4.3339844 13.720703 C 4.3424597 13.723409 4.3428902 13.721799 4.3515625 13.724609 C 4.35279 13.725037 4.3542397 13.726136 4.3554688 13.726562 A 0.50062191 0.50062191 0 0 0 4.4296875 13.742188 C 4.9265674 13.902865 5.5357765 13.986129 6.2402344 14 C 7.7413826 14.030044 9.6223546 13.732203 11.189453 12.84375 C 12.756552 11.955297 14 10.400141 14 8.125 A 0.50005 0.50005 0 0 0 13.994141 8.0488281 C 13.99535 7.7651246 13.970079 7.4755194 13.912109 7.1855469 C 13.688436 6.0667106 13.054892 4.910326 12.072266 3.9277344 C 11.08964 2.9451429 9.933297 2.3115252 8.8144531 2.0878906 C 8.5244784 2.0299307 8.2348754 2.0046396 7.9511719 2.0058594 A 0.50005 0.50005 0 0 0 7.875 2 z M 7.9824219 2.9980469 C 8.1834247 3.0000605 8.3950331 3.0239551 8.6171875 3.0683594 C 9.5058054 3.2459756 10.510021 3.7795819 11.365234 4.6347656 C 12.220448 5.4899493 12.753994 6.4942008 12.931641 7.3828125 C 13.109289 8.271424 12.942104 9.0031907 12.472656 9.4726562 C 12.003207 9.9421216 11.27143 10.109257 10.382812 9.9316406 C 9.4941953 9.7540239 8.4899791 9.2204181 7.6347656 8.3652344 C 6.779552 7.5100507 6.2460071 6.5057988 6.0683594 5.6171875 C 5.8907117 4.7285761 6.0578947 3.9968092 6.5273438 3.5273438 C 6.8794307 3.1752445 7.3794135 2.9920059 7.9824219 2.9980469 z M 5.1660156 3.9101562 C 4.9760996 4.4957789 4.955957 5.1545084 5.0878906 5.8144531 C 5.1095423 5.922757 5.1523663 6.0317842 5.1816406 6.140625 C 5.0511335 6.3204342 4.2479028 7.4855275 4.0039062 9.4375 A 0.50005 0.50005 0 1 0 4.9960938 9.5625 C 5.1232497 8.5452523 5.405924 7.8093028 5.6445312 7.3261719 C 5.963627 7.9370943 6.3871961 8.5317462 6.9277344 9.0722656 C 7.9103602 10.054857 9.0667025 10.688475 10.185547 10.912109 C 10.845496 11.04402 11.504228 11.023921 12.089844 10.833984 C 11.711449 11.293048 11.238249 11.667904 10.697266 11.974609 C 9.3513639 12.737656 7.6066174 13.026956 6.2597656 13 C 5.5992486 12.986994 5.0377257 12.902193 4.6972656 12.787109 A 0.50062191 0.50062191 0 0 0 4.6582031 12.771484 C 4.4185259 12.693806 4.1771951 12.610266 3.8789062 12.613281 C 3.5811728 12.616291 3.2479122 12.754771 3.0019531 13 L 3.0820312 12.933594 C 3.0820312 12.933594 3.0574239 12.947698 3.0449219 12.955078 L 3.0605469 12.939453 C 3.3055426 12.69447 3.4284525 12.340952 3.4101562 12.052734 C 3.3918601 11.764517 3.2958876 11.547411 3.2207031 11.333984 C 3.1013636 10.996651 3.0133183 10.416613 3 9.7402344 C 2.973044 8.3933826 3.2623436 6.6486357 4.0253906 5.3027344 C 4.3320963 4.7617513 4.7069519 4.288551 5.1660156 3.9101562 z M 9.2910156 5 A 1.311 0.52899998 44.999 0 0 9.0722656 5.0722656 A 1.311 0.52899998 44.999 0 0 9.625 6.375 A 1.311 0.52899998 44.999 0 0 10.927734 6.9277344 A 1.311 0.52899998 44.999 0 0 10.375 5.625 A 1.311 0.52899998 44.999 0 0 9.2910156 5 z"/></svg>