<svg fill="#000000" xmlns="http://www.w3.org/2000/svg"  viewBox="0 0 16 16" width="50px" height="50px"><path d="M 6.5 0 C 5.675781 0 5 0.675781 5 1.5 C 5 2.089844 5.398438 2.503906 5.898438 2.75 L 4.402344 4.992188 L 4.394531 5.007813 C 4.136719 5.449219 4 5.953125 4 6.46875 L 4 12.5 C 4 13.324219 4.675781 14 5.5 14 L 10.5 14 C 11.324219 14 12 13.324219 12 12.5 L 12 6.46875 C 12 5.953125 11.863281 5.449219 11.605469 5.007813 L 11.597656 4.992188 L 10.097656 2.75 C 10.601563 2.503906 11 2.089844 11 1.5 C 11 0.675781 10.324219 0 9.5 0 Z M 6.5 1 L 9.5 1 C 9.78125 1 10 1.21875 10 1.5 C 10 1.78125 9.78125 2 9.5 2 L 6.5 2 C 6.21875 2 6 1.78125 6 1.5 C 6 1.21875 6.21875 1 6.5 1 Z M 6.933594 3 L 9.066406 3 L 10.742188 5.515625 C 10.910156 5.800781 11 6.132813 11 6.46875 L 11 12.5 C 11 12.78125 10.78125 13 10.5 13 L 5.5 13 C 5.21875 13 5 12.78125 5 12.5 L 5 6.46875 C 5 6.132813 5.089844 5.804688 5.257813 5.515625 C 5.257813 5.515625 5.257813 5.511719 5.257813 5.511719 Z"/></svg>