<svg fill="#000000" xmlns="http://www.w3.org/2000/svg"  viewBox="0 0 16 16" width="50px" height="50px"><path d="M 8 1.023438 L 7.636719 1.40625 C 7.636719 1.40625 6.496094 2.613281 5.351563 4.140625 C 4.203125 5.671875 3 7.457031 3 9 C 3 11.753906 5.246094 14 8 14 C 10.753906 14 13 11.753906 13 9 C 13 7.457031 11.796875 5.671875 10.652344 4.140625 C 9.503906 2.613281 8.363281 1.40625 8.363281 1.40625 Z M 8 2.53125 C 8.277344 2.832031 8.925781 3.507813 9.851563 4.742188 C 10.953125 6.21875 12 8.058594 12 9 C 12 11.214844 10.214844 13 8 13 C 5.785156 13 4 11.214844 4 9 C 4 8.058594 5.046875 6.21875 6.148438 4.742188 C 7.074219 3.507813 7.722656 2.832031 8 2.53125 Z M 5 9 C 5 9.699219 5.214844 10.4375 5.710938 11.019531 C 6.210938 11.601563 7 12 8 12 L 8 11 C 7.25 11 6.789063 10.742188 6.476563 10.371094 C 6.160156 10 6 9.488281 6 9 Z"/></svg>