<svg fill="#000000" xmlns="http://www.w3.org/2000/svg"  viewBox="0 0 16 16" width="50px" height="50px"><path d="M 12.892578 2.0019531 C 12.592705 1.9857741 12.295698 2.0824681 11.984375 2.2597656 C 11.761183 2.3868646 11.134313 2.4018288 10.365234 2.4394531 C 9.5961564 2.4770771 8.6601468 2.6009471 7.84375 3.2519531 C 7.6416747 3.4140779 7.2391327 3.7223284 6.5566406 4.5742188 C 5.9265322 5.3607236 4.9755765 6.7295759 3.6210938 8.8984375 C 3.4014127 8.5265387 3.3574219 8.3671875 3.3574219 8.3671875 A 0.50005 0.50005 0 0 0 2.875 8 A 0.50005 0.50005 0 0 0 2.5214844 8.1464844 C 2.0506797 8.6172891 2.0349808 9.2567913 2.0019531 10.007812 C 1.9689254 10.758835 2 11.636619 2 12.5 A 0.50005 0.50005 0 1 0 3 12.5 C 3 11.613381 2.969778 10.739963 3 10.052734 C 3.00684 9.8972573 3.0328013 9.9130639 3.0507812 9.78125 C 3.3592128 10.246702 3.7261026 10.776015 4.4414062 11.492188 C 5.1683743 12.220036 5.7247101 12.610923 6.2050781 12.931641 C 5.8962453 12.963801 5.5771996 12.995149 5.2421875 13.005859 C 4.3451846 13.034518 3.5214844 13 3.5214844 13 A 0.50046137 0.50046137 0 0 0 3.4785156 14 C 3.4785156 14 4.3316906 14.035909 5.2734375 14.005859 C 5.7443109 13.990819 6.2391251 13.960379 6.6757812 13.896484 C 7.1124376 13.832549 7.4774529 13.783143 7.8125 13.515625 A 0.50005 0.50005 0 0 0 7.6523438 12.648438 C 7.6523438 12.648438 7.4683231 12.585746 7.0878906 12.357422 C 9.2504397 10.994852 10.616249 10.043305 11.400391 9.4160156 C 12.250406 8.7360288 12.556231 8.3408278 12.720703 8.1347656 L 12.722656 8.1308594 L 12.724609 8.1289062 C 13.35912 7.3156558 13.554634 6.3389347 13.652344 5.5058594 C 13.750053 4.6727841 13.802653 3.9162291 13.871094 3.7617188 C 14.09656 3.2526904 13.954926 2.6688187 13.632812 2.34375 L 13.630859 2.3417969 C 13.458069 2.1681741 13.192451 2.0181325 12.892578 2.0019531 z M 12.837891 3 C 12.876271 3.00207 12.873715 2.99849 12.921875 3.046875 C 13.035761 3.1618063 13.055615 3.13045 12.955078 3.3574219 C 12.693526 3.9479115 12.747744 4.6272003 12.658203 5.390625 C 12.568663 6.1540497 12.387942 6.933923 11.935547 7.5136719 C 11.752659 7.7429991 11.572396 7.9971853 10.775391 8.6347656 C 9.9911066 9.2621688 8.6082932 10.237149 6.2070312 11.736328 C 5.895686 11.486876 5.5425467 11.177788 5.1503906 10.785156 C 4.7728452 10.407153 4.482981 10.074318 4.2441406 9.7773438 C 5.7332381 7.3692973 6.7066932 5.984645 7.3359375 5.1992188 C 7.9758574 4.4004671 8.2341807 4.2197393 8.4667969 4.0332031 C 9.0424001 3.5742092 9.7113914 3.4718756 10.414062 3.4375 C 11.116734 3.4031244 11.830708 3.4978073 12.478516 3.1289062 C 12.685193 3.011204 12.799513 2.9979294 12.837891 3 z M 9.5 4.9902344 C 9.224 4.9902344 9 5.2142344 9 5.4902344 C 9 5.7662344 9.5 6.375 9.5 6.375 C 9.5 6.375 10 5.7662344 10 5.4902344 C 10 5.2142344 9.776 4.9902344 9.5 4.9902344 z M 8.5 5.9902344 C 8.224 5.9902344 8 6.2142344 8 6.4902344 C 8 6.7662344 8.5 7.375 8.5 7.375 C 8.5 7.375 9 6.7662344 9 6.4902344 C 9 6.2142344 8.776 5.9902344 8.5 5.9902344 z M 10.509766 6 C 10.233766 6 9.625 6.5 9.625 6.5 C 9.625 6.5 10.233766 7 10.509766 7 C 10.785766 7 11.009766 6.776 11.009766 6.5 C 11.009766 6.224 10.785766 6 10.509766 6 z M 7.5 7 C 7.224 7 7 7.224 7 7.5 C 7 7.776 7.5 8.3847656 7.5 8.3847656 C 7.5 8.3847656 8 7.776 8 7.5 C 8 7.224 7.776 7 7.5 7 z M 9.5039062 7.0039062 C 9.2279063 7.0039062 8.6191406 7.5039062 8.6191406 7.5039062 C 8.6191406 7.5039062 9.2279063 8.0039062 9.5039062 8.0039062 C 9.7799062 8.0039062 10.003906 7.7799062 10.003906 7.5039062 C 10.003906 7.2279063 9.7809063 7.0039062 9.5039062 7.0039062 z M 6.5 7.9902344 C 6.224 7.9902344 6 8.2142344 6 8.4902344 C 6 8.7662344 6.5 9.375 6.5 9.375 C 6.5 9.375 7 8.7662344 7 8.4902344 C 7 8.2142344 6.776 7.9902344 6.5 7.9902344 z M 8.5097656 8 C 8.2337656 8 7.625 8.5 7.625 8.5 C 7.625 8.5 8.2337656 9 8.5097656 9 C 8.7857656 9 9.0097656 8.776 9.0097656 8.5 C 9.0097656 8.224 8.7857656 8 8.5097656 8 z M 7.5 9 C 7.224 9 6.6152344 9.5 6.6152344 9.5 C 6.6152344 9.5 7.224 10 7.5 10 C 7.776 10 8 9.776 8 9.5 C 8 9.224 7.776 9 7.5 9 z"/></svg>