<?xml version="1.0"?><svg fill="#000000" xmlns="http://www.w3.org/2000/svg"  viewBox="0 0 16 16" width="50px" height="50px">    <path d="M 12.478516 2 A 0.50005 0.50005 0 0 0 12 2.5 C 12 2.7574444 11.958709 2.7939904 11.853516 2.8730469 C 11.748322 2.9521033 11.51627 3.0337124 11.207031 3.1035156 C 10.59225 3.2422878 9.6744161 3.3413708 9.0234375 4.0625 C 8.5341015 4.5565167 8.190404 5.1695734 8.0585938 5.8203125 A 0.50005 0.50005 0 0 0 8.0585938 5.8222656 C 8.0168146 6.0327708 8.0369571 6.2193719 8.0429688 6.4121094 C 7.6910603 6.5785342 7.3347269 6.7462308 7.03125 7.0488281 A 0.50005 0.50005 0 0 0 7.0292969 7.0507812 C 6.7174465 7.3635854 6.5124064 7.7457772 6.3359375 8.1347656 C 5.5139737 8.198483 4.7869051 8.3747323 4.3046875 8.7695312 C 3.7460384 9.226906 3.4229812 9.8335575 3.2011719 10.429688 C 2.9793625 11.025816 2.849484 11.623709 2.7011719 12.113281 C 2.5528597 12.602853 2.3810136 12.959921 2.1933594 13.123047 A 0.50005 0.50005 0 0 0 2.5175781 14 C 2.5175781 14 5.0408213 14.015625 5.6113281 14.015625 C 6.4449822 14.015625 7.2986746 13.658357 7.9707031 12.986328 A 0.50005 0.50005 0 0 0 7.9707031 12.984375 C 8.2607167 12.693513 8.4173596 12.351016 8.5820312 12.013672 C 8.5940652 12.01394 8.5988161 12.015625 8.6113281 12.015625 C 9.4449822 12.015625 10.298675 11.658357 10.970703 10.986328 A 0.50005 0.50005 0 0 0 10.970703 10.984375 C 11.638492 10.31558 11.933766 9.4682712 11.935547 8.6386719 C 12.296372 8.4718126 12.660389 8.2957326 12.970703 7.9863281 C 13.596793 7.3602379 13.951534 6.5753138 13.996094 5.7949219 A 0.50005 0.50005 0 0 0 13.996094 5.7675781 C 13.996094 4.4511781 13.732577 3.5523935 13.447266 2.9746094 C 13.161954 2.3968674 12.804688 2.1035156 12.804688 2.1035156 A 0.50005 0.50005 0 0 0 12.478516 2 z M 12.556641 3.4550781 C 12.764601 3.8844847 12.988048 4.6000314 12.992188 5.7460938 C 12.960788 6.2589819 12.724268 6.8160897 12.263672 7.2773438 C 11.977467 7.562709 11.653709 7.7557302 11.314453 7.8769531 A 0.50005 0.50005 0 0 0 10.986328 8.4082031 C 11.059528 9.0054576 10.829114 9.7130035 10.263672 10.279297 C 9.7657003 10.777268 9.155674 11.015625 8.6113281 11.015625 C 8.5669731 11.015625 8.4982369 11.006421 8.3964844 10.994141 A 0.50005 0.50005 0 0 0 7.8652344 11.324219 C 7.7454339 11.663496 7.551356 11.990772 7.2636719 12.279297 C 6.7657004 12.777268 6.155674 13.015625 5.6113281 13.015625 C 5.2035509 13.015625 4.0785348 13.008426 3.328125 13.003906 C 3.420748 12.793395 3.5909557 12.626278 3.6582031 12.404297 C 3.823266 11.859432 3.9499812 11.284464 4.1386719 10.777344 C 4.3273625 10.270223 4.5697741 9.8440315 4.9375 9.5429688 C 5.3052259 9.2419059 5.8141486 9.0351562 6.6582031 9.0351562 A 0.50005 0.50005 0 0 0 7.1289062 8.7050781 C 7.2518132 8.3652281 7.4623096 8.032675 7.7382812 7.7558594 C 8.0275956 7.4680158 8.3574585 7.2732614 8.6992188 7.1523438 A 0.50005 0.50005 0 0 0 9.0292969 6.6210938 C 9.0035059 6.408748 9.0006065 6.2126555 9.0390625 6.0175781 L 9.0390625 6.015625 C 9.1286613 5.5750903 9.3771964 5.1177879 9.7382812 4.7558594 A 0.50005 0.50005 0 0 0 9.7578125 4.734375 C 10.106185 4.3424561 10.738211 4.2357217 11.427734 4.0800781 C 11.772496 4.0022561 12.132272 3.9144748 12.455078 3.671875 C 12.514878 3.626934 12.504468 3.5124502 12.556641 3.4550781 z M 11.400391 5 A 0.78399998 1.177 44.999 0 0 10.445312 5.4453125 A 0.78399998 1.177 44.999 0 0 10.167969 6.8320312 A 0.78399998 1.177 44.999 0 0 11.554688 6.5546875 A 0.78399998 1.177 44.999 0 0 11.832031 5.1679688 A 0.78399998 1.177 44.999 0 0 11.400391 5 z M 9.4003906 8 A 0.78399998 1.177 44.999 0 0 8.4453125 8.4453125 A 0.78399998 1.177 44.999 0 0 8.1679688 9.8320312 A 0.78399998 1.177 44.999 0 0 9.5546875 9.5546875 A 0.78399998 1.177 44.999 0 0 9.8320312 8.1679688 A 0.78399998 1.177 44.999 0 0 9.4003906 8 z M 6.4003906 10 A 0.78399998 1.177 44.999 0 0 5.4453125 10.445312 A 0.78399998 1.177 44.999 0 0 5.1679688 11.832031 A 0.78399998 1.177 44.999 0 0 6.5546875 11.554688 A 0.78399998 1.177 44.999 0 0 6.8320312 10.167969 A 0.78399998 1.177 44.999 0 0 6.4003906 10 z"/></svg>