<svg fill="#000000" xmlns="http://www.w3.org/2000/svg"  viewBox="0 0 16 16" width="50px" height="50px"><path d="M 7.5097656 2 C 5.9123497 2 4.3267524 3.0283297 4.2714844 3.0644531 C 4.0437282 3.1516889 1.9860845 4.0041702 1.3105469 6.5566406 A 0.50005 0.50005 0 0 0 1.2929688 6.6015625 C 1.2929688 6.6015625 1.0223256 7.3651542 1.0195312 7.9980469 C 1.0164613 9.2109897 1.0679892 10.864328 2.1835938 11.871094 A 0.50005 0.50005 0 0 0 2.5175781 12 C 3.1270429 12 3.5981359 12.040436 4 12.099609 L 4 13.5 A 0.50005 0.50005 0 0 0 4.5 14 L 7.5097656 14 L 10.5 14 A 0.50005 0.50005 0 0 0 11 13.5 L 11 12.103516 C 11.408579 12.042681 11.884711 12 12.5 12 A 0.50005 0.50005 0 0 0 12.853516 11.853516 C 13.990409 10.715446 14.035078 9.0847218 14.015625 7.9921875 C 14.010925 7.7030068 13.933005 7.4443352 13.863281 7.1894531 C 13.802545 6.967444 13.75669 6.8248439 13.742188 6.7792969 A 0.50005 0.50005 0 0 0 13.734375 6.7539062 C 13.733708 6.7518235 13.724609 6.7207031 13.724609 6.7207031 A 0.50005 0.50005 0 0 0 13.705078 6.671875 C 13.027582 4.1236777 10.988389 3.1717293 10.769531 3.0761719 C 10.769531 3.0761719 9.1354395 2 7.5097656 2 z M 7.5097656 3 C 8.4281012 3 9.4318032 3.5052361 9.8710938 3.7402344 L 8.0429688 8.3144531 A 0.50050706 0.50050706 0 0 0 8.9726562 8.6855469 L 10.746094 4.2421875 C 11.231735 4.501789 12.196097 5.1262209 12.681641 6.7246094 L 10.160156 9.1386719 A 0.50006856 0.50006856 0 0 0 10.851562 9.8613281 L 12.976562 7.8261719 C 12.986752 7.8811629 13.015525 8.0013174 13.015625 8.0078125 A 0.50005 0.50005 0 0 0 13.015625 8.0097656 C 13.033425 9.0058658 12.918595 10.236014 12.199219 11.039062 C 10.140209 11.096713 9.0571472 11.586028 8.4863281 12.140625 C 8.1837572 12.434603 8.0059618 12.706444 7.8769531 12.839844 C 7.7479445 12.973243 7.7316269 13 7.5097656 13 C 7.2468494 13 7.2122676 12.962514 7.0839844 12.833984 C 6.9557012 12.705455 6.7839559 12.440721 6.4902344 12.146484 C 5.93521 11.590487 4.8720831 11.095763 2.8085938 11.039062 C 2.1770373 10.392709 2.0167013 9.1188846 2.0195312 8.0019531 C 2.0197982 7.9415201 2.0528993 7.8577961 2.0703125 7.7578125 L 4.1601562 9.8535156 A 0.50063759 0.50063759 0 0 0 4.8691406 9.1464844 L 2.3378906 6.6113281 C 2.8243372 5.0041936 3.7884558 4.4398905 4.2636719 4.2167969 L 6.046875 8.6855469 A 0.50050711 0.50050711 0 1 0 6.9765625 8.3144531 L 5.1484375 3.7402344 C 5.5877282 3.5052361 6.59143 3 7.5097656 3 z M 5 12.359375 C 5.3590527 12.508009 5.6105709 12.680581 5.7832031 12.853516 C 5.8270951 12.897484 5.8705363 12.953515 5.9101562 13 L 5 13 L 5 12.359375 z M 10 12.359375 L 10 13 L 9.0605469 13 C 9.1001677 12.955173 9.139357 12.902355 9.1835938 12.859375 C 9.3633528 12.684724 9.6257962 12.509951 10 12.359375 z"/></svg>