<svg fill="#000000" xmlns="http://www.w3.org/2000/svg"  viewBox="0 0 16 16" width="50px" height="50px"><path d="M 6.289063 2 C 5.765625 2 5.3125 2.347656 5.101563 2.820313 L 5.023438 3 L 2.5 3 C 1.675781 3 1 3.675781 1 4.5 L 1 11.5 C 1 12.324219 1.675781 13 2.5 13 L 13.5 13 C 14.324219 13 15 12.324219 15 11.5 L 15 4.5 C 15 3.675781 14.324219 3 13.5 3 L 10.980469 3 L 10.898438 2.820313 C 10.683594 2.347656 10.234375 2 9.710938 2 Z M 6.289063 3 L 9.710938 3 C 9.796875 3 9.90625 3.058594 9.984375 3.230469 L 10.332031 4 L 13.5 4 C 13.78125 4 14 4.21875 14 4.5 L 14 11.5 C 14 11.78125 13.78125 12 13.5 12 L 2.5 12 C 2.21875 12 2 11.78125 2 11.5 L 2 4.5 C 2 4.21875 2.21875 4 2.5 4 L 5.667969 4 L 6.015625 3.230469 C 6.089844 3.058594 6.203125 3 6.289063 3 Z M 3 5 L 3 6 L 4 6 L 4 5 Z M 8 5 C 6.347656 5 5 6.347656 5 8 C 5 9.652344 6.347656 11 8 11 C 9.652344 11 11 9.652344 11 8 C 11 6.347656 9.652344 5 8 5 Z M 8 6 C 9.109375 6 10 6.890625 10 8 C 10 9.109375 9.109375 10 8 10 C 6.890625 10 6 9.109375 6 8 C 6 6.890625 6.890625 6 8 6 Z"/></svg>