<svg fill="#000000" xmlns="http://www.w3.org/2000/svg"  viewBox="0 0 16 16" width="50px" height="50px"><path d="M 9.5 1 C 8.6774686 1 8 1.6774686 8 2.5 C 8 3.089585 8.4003099 3.5055555 8.9003906 3.75 L 7.4023438 5.9941406 L 7.3945312 6.0078125 C 7.1359128 6.4501183 7 6.9539604 7 7.4667969 L 7 8.1738281 C 6.6692184 8.0902835 6.318475 8.038447 5.9511719 8.0175781 C 5.7267762 6.6820535 4.6523437 5.9589844 4.6523438 5.9589844 L 4.0976562 6.7910156 C 4.0976562 6.7910156 4.7341378 7.2258815 4.9355469 8.0214844 C 4.2697613 8.0699571 3.6524748 8.210605 3.1367188 8.4960938 C 2.4775118 8.8609874 2 9.5357048 2 10.375 C 2 11.214295 2.3947086 12.057416 3.0136719 12.720703 C 3.6326351 13.38399 4.5051351 13.875 5.5 13.875 C 6.1507804 13.875 6.7406548 13.653255 7.25 13.322266 C 7.5195943 13.728849 7.9803227 14 8.5 14 L 12.5 14 C 13.322531 14 14 13.322531 14 12.5 L 14 7.4667969 C 14 6.9539604 13.862713 6.4499017 13.603516 6.0078125 L 13.597656 5.9941406 L 12.099609 3.75 C 12.59969 3.5055555 13 3.089585 13 2.5 C 13 1.6774686 12.322531 1 11.5 1 L 9.5 1 z M 9.5 2 L 11.5 2 C 11.781469 2 12 2.2185314 12 2.5 C 12 2.7814686 11.781469 3 11.5 3 L 10 3 L 9.5 3 C 9.2185314 3 9 2.7814686 9 2.5 C 9 2.2185314 9.2185314 2 9.5 2 z M 9.9335938 4 L 11.066406 4 L 12.742188 6.5136719 C 12.910989 6.8015827 13 7.1316334 13 7.4667969 L 13 12.5 C 13 12.781469 12.781469 13 12.5 13 L 8.5 13 C 8.2764328 13 8.0993869 12.85988 8.0332031 12.662109 C 8.6226799 12.007688 9 11.190939 9 10.375 C 9 9.5988394 8.5827921 8.9754938 8 8.5957031 L 8 7.4667969 C 8 7.1329111 8.089683 6.8045111 8.2578125 6.515625 C 8.2584559 6.514515 8.2571668 6.5128287 8.2578125 6.5117188 L 9.9335938 4 z M 5.5 9 C 6.2752914 9 6.9523631 9.1349873 7.3789062 9.3710938 C 7.8054494 9.6072 8 9.8682952 8 10.375 C 8 10.881705 7.7226461 11.53885 7.2558594 12.039062 C 6.7890726 12.539276 6.1621351 12.875 5.5 12.875 C 4.8378649 12.875 4.2109274 12.539277 3.7441406 12.039062 C 3.2773539 11.53885 3 10.881705 3 10.375 C 3 9.8682952 3.1945506 9.6072 3.6210938 9.3710938 C 4.0476368 9.1349873 4.7247086 9 5.5 9 z"/></svg>