<?xml version="1.0" encoding="utf-8"?>
<!-- Generator: Adobe Illustrator 18.0.0, SVG Export Plug-In . SVG Version: 6.00 Build 0)  -->
<!DOCTYPE svg PUBLIC "-//W3C//DTD SVG 1.1//EN" "http://www.w3.org/Graphics/SVG/1.1/DTD/svg11.dtd">
<svg version="1.1" id="Layer_1" xmlns="http://www.w3.org/2000/svg" xmlns:xlink="http://www.w3.org/1999/xlink" x="0px" y="0px"
	 viewBox="0 0 800 600" enable-background="new 0 0 800 600" xml:space="preserve">
<g>
	<path fill="#231F20" d="M694.4,228.8c-11.2-49.7-40.3-99.4-82.5-141.6C556.6,31.9,489.1-0.9,429.1-0.9c-33.5,0-63.3,11.1-83.9,31.4
		l-1.4-1.4c-52.5,52.5-88.1,127.5-95.6,201.6c-1.9,22.5-7.5,42.2-16.9,58.1c-21.5,37.1-24.9,80.1-11.4,116.4l-34.5,34.5
		c-9.4-4.7-19.7-7.5-30-6.6c-16.9,0.9-32.8,9.4-43.1,22.5c-15.9,20.6-16.9,48.8-1.9,70.3c8.4,13.1,20.6,20.6,34.7,24.4
		c2.8,15,11.2,29.1,24.4,38.4c10.3,7.5,22.5,11.2,34.7,11.2c13.1,0,26.2-3.8,37.5-13.1c13.1-10.3,21.6-26.2,22.5-43.1
		c0-10.3-1.9-20.6-6.6-30l36.5-36.5c12.8,4.3,26.4,6.5,40.3,6.5c19.7,0,39.4-4.7,57.2-13.1c23.4-10.3,50.6-17.8,83.4-22.5
		c62.9-8.3,124.4-36.3,172.8-77.6c7.1-4.3,13.6-9.4,19.4-15.2C697.2,325.3,706.6,281.2,694.4,228.8z M585.6,114.4
		c37.5,36.6,63.8,80.6,73.1,122.8c9.4,39.4,2.8,72.2-16.9,91.9l-1.9-1.9c-4.5,4.5-9.2,8.8-14,13c-11.8,6.1-26,9.5-42.2,9.5
		c-49.7,0-108.8-29.1-156.6-76.9c-37.5-36.6-63.8-80.6-73.1-122.8c-9.4-39.4-2.8-72.2,16.9-91.9C385,45,404.7,37.5,429.1,37.5
		C478.8,37.5,537.8,66.6,585.6,114.4z M218.1,498.8c-7.5,7.5-7.5,18.8,0,26.2c4.7,4.7,6.6,10.3,6.6,16.9c0,6.6-3.8,12.2-8.4,15.9
		c-7.5,6.6-18.8,6.6-26.2,0.9c-8.4-6.6-9.4-15.9-8.4-22.5c0.9-5.6-0.9-11.2-4.7-15.9c-3.8-3.8-10.3-6.6-15.9-5.6
		c-3.8,0-14.1,0-20.6-9.4c-5.6-8.4-4.7-18.8,0.9-26.2c3.8-4.7,9.4-8.4,15.9-8.4s12.2,1.9,16.9,6.6c7.5,7.5,18.8,7.5,26.2,0
		l38.5-38.5c2.6,3.3,5.4,6.4,8.4,9.4c3.9,3.9,7.9,7.4,12.2,10.7L218.1,498.8z M470.3,411.6c-35.6,4.7-66.6,13.1-93.8,25.3
		c-37.5,16.9-77.8,11.2-104.1-15c-28.1-28.1-31.9-75-9.4-113.4c12.2-20.6,19.7-45,22.5-73.1c3.3-33.3,13.2-66.8,28.2-97.9
		c0.9,6.6,2.1,13.3,3.7,20.1c11.2,49.7,40.3,99.4,82.5,141.6c47.4,47.4,103.8,78.3,156.8,86.1C529,398.4,499.5,407.6,470.3,411.6z"
		/>
	<path fill="#231F20" d="M479.7,220.3c17.8,17.8,40.3,28.1,59.1,28.1c12.2,0,21.6-3.8,29.1-11.2c11.2-10.3,14.1-27.2,9.4-45
		c-4.7-14.1-13.1-29.1-26.2-42.2c-17.8-17.8-40.3-28.1-59.1-28.1c-11.2,0-21.6,3.8-29.1,11.2c-11.2,10.3-14.1,27.2-9.4,45
		C458.1,192.2,466.6,207.2,479.7,220.3z M489.1,158.4c0,0,0.9,0,2.8,0c7.5,0,20.6,4.7,31.9,17.8c15.9,16.9,18.8,31.9,16.9,34.7
		c0,0-0.9,0-2.8,0c-7.5,0-19.7-5.6-31.9-17.8C490,176.2,487.2,161.2,489.1,158.4z"/>
</g>
</svg>
