<svg fill="none" xmlns="http://www.w3.org/2000/svg" viewBox="0 0 149 167">
<mask id="a" fill="#fff">
<path fill-rule="evenodd" clip-rule="evenodd" d="M20.1235 21.1328H128.355l-.229 99.6472-.045-.001c-.001.104-.003.209-.006.313 0 18.361-23.827 31.258-53.7108 31.258-29.831 0-54.0239-14.832-54.1097-33.148h-.028l-.103-98.0692Z"/>
</mask>
<path fill-rule="evenodd" clip-rule="evenodd" d="M20.1235 21.1328H128.355l-.229 99.6472-.045-.001c-.001.104-.003.209-.006.313 0 18.361-23.827 31.258-53.7108 31.258-29.831 0-54.0239-14.832-54.1097-33.148h-.028l-.103-98.0692Z" fill="#C5FFD4"/>
<path d="M128.355 21.1328V12.075h9.078l-.02 9.0786-9.058-.0208Zm-108.2315 0-9.0578.0095-.0095-9.0673h9.0673v9.0578ZM128.126 120.78l9.058.021-.021 9.17-9.17-.134.133-9.057Zm-.045-.001-9.057-.101.101-9.089 9.088.133-.132 9.057Zm-.006.313h-9.058v-.123l.003-.122 9.055.245Zm-107.8205-1.89.1331-9.057 8.883.131.0416 8.884-9.0577.042Zm-.028 0-.1331 9.056-8.9153-.131-.0094-8.916 9.0578-.009ZM128.355 30.1906H20.1235V12.075H128.355v18.1156Zm-9.287 90.5684.229-99.647 18.116.0416-.229 99.6474-18.116-.042Zm9.145-9.037.046.001-.266 18.114-.045-.001.265-18.114Zm-9.193 9.125c.002-.056.003-.113.004-.169l18.114.203c-.002.152-.005.304-.009.456l-18.109-.49Zm-44.6558 22.445c13.7726 0 25.5648-2.993 33.5798-7.557 8.073-4.597 11.073-9.905 11.073-14.643h18.116c0 13.622-8.913 23.944-20.225 30.385-11.369 6.475-26.4323 9.93-42.5438 9.93v-18.115Zm-45.052-24.132c.0227 4.847 3.279 10.678 11.5751 15.761 8.1464 4.992 19.9572 8.371 33.4769 8.371v18.115c-16.3112 0-31.5124-4.036-42.9416-11.039-11.2796-6.912-20.1627-17.655-20.2258-31.124l18.1154-.084Zm-8.9527-9.015h.0281l-.2661 18.114-.0281-.001.2661-18.113Zm8.8218-89.0217.103 98.0687-18.1156.019-.103-98.0687 18.1156-.019Z" fill="#000" mask="url(#a)"/>
<path d="M24.6512 21.1299c0 1.0211.5384 2.5423 2.7208 4.4686 2.1758 1.9205 5.5837 3.8568 10.1844 5.5744 9.1673 3.4224 22.1352 5.6313 36.6815 5.6313 14.5463 0 27.5141-2.2089 36.6811-5.6313 4.601-1.7176 8.009-3.6539 10.185-5.5744 2.182-1.9263 2.721-3.4475 2.721-4.4686 0-1.0211-.539-2.5422-2.721-4.4685-2.176-1.9206-5.584-3.8568-10.185-5.5744-9.167-3.4225-22.1348-5.6313-36.6811-5.6313-14.5463 0-27.5142 2.2088-36.6815 5.6313-4.6007 1.7176-8.0086 3.6538-10.1844 5.5744-2.1824 1.9263-2.7208 3.4474-2.7208 4.4685Z" fill="#C5FFD4" stroke="#000" stroke-width="9.0578"/>
<path d="m122.95 30.2457 14.292-2.1426c2.959-.4436 5.776 1.4129 6.536 4.3062.8 3.0484-.955 6.1837-3.972 7.0958l-25.621 7.7459M25.5535 30.7372l-14.3944-1.2899c-2.9795-.267-5.6816 1.7535-6.268 4.6868-.6178 3.0906 1.32 6.1161 4.3857 6.8474l26.0361 6.2104" stroke="#000" stroke-width="9.0578"/>
</svg>
