<svg fill="#000000" xmlns="http://www.w3.org/2000/svg"  viewBox="0 0 16 16" class="stroke-2" width="50px" height="50px"><path d="M 6 2 C 3.796875 2 2 3.796875 2 6 C 2 7.984375 3.460938 9.625 5.359375 9.9375 L 2.023438 13.269531 L 2.726563 13.980469 L 6.0625 10.640625 C 6.375 12.539063 8.015625 14 10 14 C 12.203125 14 14 12.203125 14 10 L 14 2.5 C 14 2.222656 13.777344 2 13.5 2 Z M 6 3 L 13 3 L 13 10 C 13 11.664063 11.664063 13 10 13 C 8.335938 13 7 11.664063 7 10 L 7 9.707031 L 9.976563 6.726563 L 9.273438 6.023438 L 6.289063 9.003906 C 6.210938 9.003906 6.148438 9 6 9 C 4.335938 9 3 7.664063 3 6 C 3 4.335938 4.335938 3 6 3 Z"/></svg>