<svg fill="#000000" xmlns="http://www.w3.org/2000/svg"  viewBox="0 0 16 16" width="50px" height="50px"><path d="M 5.5 3 A 0.50005 0.50005 0 0 0 5.2421875 3.9296875 C 5.4874332 4.0768349 5.6406732 4.2252559 5.7734375 4.5390625 C 5.8868481 4.8071241 5.9581038 5.2496068 5.9804688 5.84375 C 5.2915867 6.2232644 4.7976927 6.6307047 4.5644531 6.8359375 C 4.4017295 6.6348816 4.3051702 6.4809083 3.9101562 6.1269531 C 3.3097025 5.588912 2.4850139 5 1.5 5 A 0.50005 0.50005 0 0 0 1.0527344 5.7226562 C 1.3623629 6.3419132 2 7.1666667 2 8.5 C 2 8.7644764 1.8612728 9.3872188 1.6679688 9.9472656 C 1.4746646 10.507312 1.2031414 11.061176 1.0996094 11.199219 A 0.50005 0.50005 0 0 0 1.5 12 C 3.3402063 12 4.2188461 10.793457 4.5917969 10.199219 C 4.947197 10.523633 5.7673242 11.211296 6.9589844 11.636719 C 6.9100554 11.846121 6.7689108 12.203157 6.5742188 12.519531 C 6.3422135 12.89654 6.109375 13.1875 6.109375 13.1875 A 0.50005 0.50005 0 0 0 6.5 14 L 8.375 14 A 0.50005 0.50005 0 0 0 8.6347656 13.927734 C 8.5894916 13.955294 8.7479241 13.870124 8.9082031 13.777344 C 9.0684821 13.684564 9.2768693 13.553641 9.5019531 13.376953 C 9.935451 13.036664 10.434667 12.519408 10.787109 11.787109 C 12.532373 11.366218 13.946614 10.371051 14.695312 9.265625 A 0.50005 0.50005 0 0 0 14.697266 9.265625 C 14.796656 9.1183404 14.931505 8.9294086 14.982422 8.6503906 C 15.033342 8.3713727 14.963222 8.0552784 14.796875 7.7558594 A 0.50005 0.50005 0 0 0 14.742188 7.6757812 C 14.254863 7.0969922 13.362383 6.1854391 12.001953 5.5898438 A 0.50005 0.50005 0 0 0 11.986328 5.5117188 C 11.986328 5.5117188 11.657851 3.6895135 10.203125 3.0429688 A 0.50005 0.50005 0 0 0 10 3 L 5.5 3 z M 6.5664062 4 L 9.8339844 4 C 10.287101 4.2306937 10.600856 4.7804851 10.794922 5.2050781 C 10.283169 5.0854789 9.7368303 5 9.125 5 C 8.3102026 5 7.5846278 5.1695353 6.953125 5.4023438 C 6.9105311 4.916785 6.8382958 4.486398 6.6953125 4.1484375 C 6.6662802 4.0798157 6.600316 4.063097 6.5664062 4 z M 9.125 6 C 11.781635 6 13.23217 7.4529302 13.939453 8.2871094 C 13.983223 8.3819404 14.001897 8.449625 13.998047 8.4707031 C 13.993247 8.4970181 13.959446 8.5680951 13.867188 8.7050781 C 13.116191 9.813902 11.202649 11 9 11 C 6.7666667 11 4.8535156 9.1464844 4.8535156 9.1464844 A 0.50005 0.50005 0 0 0 4.0527344 9.2753906 C 4.0527344 9.2753906 3.4542755 10.344246 2.375 10.785156 C 2.450886 10.598338 2.5419664 10.480052 2.6132812 10.273438 C 2.8262272 9.6564838 3 9.0275236 3 8.5 C 3 7.7188206 2.7951396 7.0713854 2.5742188 6.5371094 C 2.803107 6.6789101 3.0443802 6.6958002 3.2421875 6.8730469 C 3.7577336 7.3350058 4.0957031 7.7949219 4.0957031 7.7949219 A 0.50005 0.50005 0 0 0 4.8417969 7.8632812 C 4.8417969 7.8632815 6.8916667 6 9.125 6 z M 11.5 7 A 0.5 0.5 0 0 0 11 7.5 A 0.5 0.5 0 0 0 11.5 8 A 0.5 0.5 0 0 0 12 7.5 A 0.5 0.5 0 0 0 11.5 7 z M 7.9511719 11.898438 C 8.2830406 11.957238 8.6275425 12 9 12 C 9.170198 12 9.3335188 11.979778 9.5 11.96875 C 9.2997789 12.223078 9.0856203 12.432595 8.8828125 12.591797 C 8.7032713 12.732734 8.5382054 12.836857 8.4082031 12.912109 C 8.337072 12.953284 8.2943772 12.975987 8.2480469 13 L 7.4414062 13 C 7.641517 12.673956 7.8581281 12.310243 7.9511719 11.898438 z"/></svg>