<svg fill="#000000" xmlns="http://www.w3.org/2000/svg"  viewBox="0 0 16 16" width="50px" height="50px"><path d="M 7.5019531 0 A 0.50005 0.50005 0 0 0 7.0058594 0.41796875 L 6.5761719 3 L 5.5 3 A 0.50005 0.50005 0 0 0 5 3.5 L 5 5.09375 C 4.4209662 5.3022261 4 5.8531387 4 6.5 L 4 13.5 C 4 14.322531 4.6774686 15 5.5 15 L 9.5 15 C 10.322531 15 11 14.322531 11 13.5 L 11 6.5 C 11 5.8531387 10.579034 5.3022261 10 5.09375 L 10 3.5 A 0.50005 0.50005 0 0 0 9.5 3 L 8.4238281 3 L 7.9941406 0.41796875 A 0.50005 0.50005 0 0 0 7.5019531 0 z M 6 4 L 9 4 L 9 5 L 6 5 L 6 4 z M 5.5 6 L 9.5 6 C 9.7814686 6 10 6.2185314 10 6.5 L 10 13.5 C 10 13.781469 9.7814686 14 9.5 14 L 5.5 14 C 5.2185314 14 5 13.781469 5 13.5 L 5 6.5 C 5 6.2185314 5.2185314 6 5.5 6 z"/></svg>