<svg fill="#000000" xmlns="http://www.w3.org/2000/svg"  viewBox="0 0 16 16" width="50px" height="50px"><path d="M 10.5625 1 C 9.9165 1 9.3327188 1.3487188 9.0117188 1.8867188 C 7.9677188 1.7807188 7 2.6215 7 3.6875 C 7 4.3059233 7.3256093 4.8641772 7.8261719 5.1933594 C 7.6396764 5.3577965 6.7254745 6.1636922 5.5722656 7.1875 C 4.3071791 8.3106317 3.035139 9.4401198 2.7304688 9.7441406 L 2.7304688 9.7460938 L 2.7285156 9.7460938 C 1.7593484 10.715261 1.7593484 12.302317 2.7285156 13.271484 C 3.6976829 14.240652 5.284739 14.240652 6.2539062 13.271484 C 6.5436809 12.981711 7.685571 11.727965 8.8085938 10.494141 C 9.8791 9.3180138 10.801727 8.3015943 10.894531 8.1992188 C 10.903696 8.1974097 10.912716 8.1972796 10.921875 8.1953125 C 11.250875 8.6903125 11.806875 9 12.421875 9 C 13.420875 9 14.233375 8.1865 14.234375 7.1875 C 14.234375 7.0985 14.227844 7.0117813 14.214844 6.9257812 C 14.696844 6.5927813 15 6.0385 15 5.4375 C 15 4.7915 14.652234 4.2077187 14.115234 3.8867188 C 14.122234 3.8217187 14.126953 3.7535 14.126953 3.6875 C 14.126953 2.6215 13.168234 1.7797188 12.115234 1.8867188 C 11.793234 1.3487187 11.2085 1 10.5625 1 z M 10.5625 2 C 10.9245 2 11.24575 2.2475156 11.34375 2.6035156 L 11.490234 3.1484375 L 12.013672 2.9355469 C 12.541672 2.7235469 13.125 3.1394531 13.125 3.6894531 C 13.125 3.7914531 13.103453 3.8902813 13.064453 3.9882812 L 12.851562 4.5117188 L 13.396484 4.6582031 C 13.751484 4.7542031 14 5.0755 14 5.4375 C 14 5.7755 13.781984 6.0812656 13.458984 6.1972656 L 12.958984 6.3789062 L 13.169922 6.8652344 C 13.213922 6.9682344 13.234375 7.0775 13.234375 7.1875 C 13.234375 7.6365 12.869875 8 12.421875 8 C 12.067875 8 11.759344 7.7707344 11.652344 7.4277344 L 11.472656 6.8515625 L 10.941406 7.1347656 C 10.434406 7.4027656 9.866625 7.0830781 9.765625 6.5800781 L 9.7089844 6.296875 L 9.4335938 6.203125 C 9.0995937 6.091125 8.875 5.7845 8.875 5.4375 C 8.875 5.3355 8.8965469 5.2366719 8.9355469 5.1386719 L 9.1484375 4.6132812 L 8.6035156 4.4667969 C 8.2485156 4.3697969 8 4.0495 8 3.6875 C 8 3.1375 8.5843281 2.7245469 9.1113281 2.9355469 L 9.6367188 3.1464844 L 9.7832031 2.6035156 C 9.8802031 2.2485156 10.2005 2 10.5625 2 z M 8.0996094 6.2851562 C 8.2029217 6.4768159 8.3346478 6.6491515 8.5 6.7929688 L 4.1464844 11.146484 A 0.50005 0.50005 0 1 0 4.8535156 11.853516 L 9.15625 7.5507812 C 9.3103691 7.7388385 9.4996559 7.8964113 9.7128906 8.0117188 C 9.3627614 8.3983624 8.9122103 8.8951572 8.0683594 9.8222656 C 6.9463821 11.054941 5.7250972 12.384278 5.546875 12.5625 C 4.9600423 13.149333 4.0243327 13.149333 3.4375 12.5625 C 2.8506673 11.975667 2.8506673 11.039958 3.4375 10.453125 C 3.6026978 10.288386 4.973152 9.0569825 6.2363281 7.9355469 C 7.1902916 7.0886272 7.7056753 6.6331592 8.0996094 6.2851562 z"/></svg>