<svg fill="#000000" xmlns="http://www.w3.org/2000/svg"  viewBox="0 0 16 16" width="50px" height="50px"><path d="M 5.5 2 C 3.8333333 2 2.8623629 2.9080868 2.4277344 3.7773438 C 1.9931059 4.6466006 2 5.5 2 5.5 C 2 5.5 1.9931059 5.8533993 2.1777344 6.2226562 C 2.1858221 6.2388318 2.2017585 6.2551975 2.2109375 6.2714844 C 2.0099915 6.8155327 1.9905554 7.3426116 2.1210938 7.7929688 C 2.2703589 8.3079336 2.5788114 8.7167049 2.9023438 9.03125 C 3.3026461 9.4204329 3.6785868 9.6421935 3.9589844 9.7871094 C 3.906007 10.015068 3.875 10.252991 3.875 10.5 C 3.875 10.606508 3.8952466 10.706074 3.9140625 10.806641 C 3.310365 10.555525 2.8535156 10.146484 2.8535156 10.146484 A 0.50005 0.50005 0 0 0 2.4941406 9.9941406 A 0.50005 0.50005 0 0 0 2.1464844 10.853516 C 2.1464844 10.853516 3.1436501 11.888988 4.5546875 11.982422 C 4.5587532 11.986811 4.5623235 11.991725 4.5664062 11.996094 C 4.6198246 12.053253 4.685365 12.099725 4.7421875 12.154297 C 3.6735516 12.474627 3.0996094 13.199219 3.0996094 13.199219 A 0.50078123 0.50078123 0 1 0 3.9003906 13.800781 C 3.9003906 13.800781 4.4722222 13 5.75 13 A 0.50005 0.50005 0 0 0 5.8339844 12.994141 C 5.8543332 13.006825 5.8742038 13.022676 5.8945312 13.035156 C 6.8323266 13.610915 7.7578125 13.966797 7.7578125 13.966797 L 7.9375 14.035156 L 8.1171875 13.966797 C 8.1171875 13.966797 9.0429208 13.610924 9.9804688 13.035156 C 10.012083 13.015741 10.042561 12.990614 10.074219 12.970703 A 0.50005 0.50005 0 0 0 10.25 13 C 11.527778 13 12.099609 13.800781 12.099609 13.800781 A 0.50078155 0.50078155 0 1 0 12.900391 13.199219 C 12.900391 13.199219 12.290423 12.432782 11.160156 12.128906 C 11.207589 12.082604 11.263615 12.044236 11.308594 11.996094 L 11.310547 11.994141 C 12.794346 11.96326 13.853516 10.853516 13.853516 10.853516 A 0.50005 0.50005 0 0 0 13.490234 9.9960938 A 0.50005 0.50005 0 0 0 13.146484 10.146484 C 13.146484 10.146484 12.628467 10.629999 11.953125 10.869141 C 11.979985 10.749539 12 10.628199 12 10.5 C 12 10.273456 11.968884 10.056332 11.923828 9.8457031 C 12.170265 9.7298192 12.6151 9.500402 13.097656 9.03125 C 13.421188 8.7167049 13.729641 8.3079336 13.878906 7.7929688 C 14.009444 7.3426116 13.990008 6.8155327 13.789062 6.2714844 C 13.798242 6.2551975 13.814178 6.2388317 13.822266 6.2226562 C 14.006894 5.8533994 14 5.5 14 5.5 C 14 5.5 14.006894 4.6466007 13.572266 3.7773438 C 13.137637 2.9080866 12.166667 2 10.5 2 A 0.50005 0.50005 0 1 0 10.5 3 C 11.833333 3 12.362363 3.5919132 12.677734 4.2226562 C 12.993106 4.8533994 13 5.5 13 5.5 C 13 5.5 12.993104 5.6466007 12.927734 5.7773438 C 12.862367 5.9080868 12.833333 6 12.5 6 C 12.37375 6 12.342987 5.976669 12.283203 5.9140625 C 12.22342 5.851456 12.153981 5.7237517 12.105469 5.5546875 C 12.008445 5.2165591 12 4.7575 12 4.5 A 0.50005 0.50005 0 1 0 11 4.5 C 11 4.7575 10.9916 5.2969565 11.144531 5.8300781 C 11.221021 6.0966389 11.33908 6.3735439 11.560547 6.6054688 C 11.782013 6.8373935 12.12625 7 12.5 7 C 12.66104 7 12.808388 6.972966 12.945312 6.9316406 C 12.982203 7.1478738 12.969187 7.3389226 12.917969 7.515625 C 12.832859 7.8092539 12.641312 8.0801701 12.402344 8.3125 C 12.093509 8.6127562 11.790354 8.7899008 11.570312 8.9042969 C 11.408579 8.5974343 11.223901 8.3118477 11.025391 8.0722656 C 10.77402 7.768887 10.512538 7.5212078 10.271484 7.3398438 C 10.178421 7.2698245 10.089542 7.2185971 10 7.1679688 L 10 6.5 A 0.50005 0.50005 0 0 0 9.4921875 5.9921875 A 0.50005 0.50005 0 0 0 9 6.5 L 9 7 L 7 7 L 7 6.5 A 0.50005 0.50005 0 0 0 6.4921875 5.9921875 A 0.50005 0.50005 0 0 0 6 6.5 L 6 7.0976562 C 5.9855654 7.1049308 5.9696871 7.109772 5.9550781 7.1171875 C 5.83879 7.1762152 5.7240425 7.2491616 5.6035156 7.3398438 C 5.3624618 7.5212079 5.1009802 7.768887 4.8496094 8.0722656 C 4.6621735 8.2984814 4.4880305 8.567018 4.3320312 8.8535156 C 4.1165822 8.7303499 3.8426949 8.550732 3.5976562 8.3125 C 3.3586886 8.0801701 3.1671413 7.8092539 3.0820312 7.515625 C 3.0308133 7.3389226 3.017797 7.1478738 3.0546875 6.9316406 C 3.1916117 6.972966 3.3389598 7 3.5 7 C 3.87375 7 4.2179865 6.8373935 4.4394531 6.6054688 C 4.6609197 6.373544 4.7789807 6.0966389 4.8554688 5.8300781 C 5.0084448 5.2969565 5 4.7575 5 4.5 A 0.50005 0.50005 0 1 0 4 4.5 C 4 4.7575 3.9915552 5.2165591 3.8945312 5.5546875 C 3.8460195 5.7237517 3.7765803 5.851456 3.7167969 5.9140625 C 3.6570135 5.976669 3.62625 6 3.5 6 C 3.1666667 6 3.1376371 5.9080868 3.0722656 5.7773438 C 3.0068941 5.6466006 3 5.5 3 5.5 C 3 5.5 3.0068941 4.8533993 3.3222656 4.2226562 C 3.6376371 3.5919132 4.1666667 3 5.5 3 A 0.50005 0.50005 0 1 0 5.5 2 z M 6.375 8 L 9.5 8 C 9.3940972 8 9.4224399 7.9852995 9.4667969 8.0078125 C 9.5111529 8.0303275 9.5853707 8.0770105 9.6699219 8.140625 C 9.8390242 8.267857 10.054105 8.465488 10.255859 8.7089844 C 10.659368 9.1959771 11 9.8541667 11 10.5 C 11 10.723583 10.863677 11.006866 10.578125 11.3125 C 10.292573 11.618134 9.8787574 11.924603 9.4570312 12.183594 C 8.7027718 12.646801 8.0907007 12.881985 7.9375 12.943359 C 7.7842533 12.881984 7.172454 12.646809 6.4179688 12.183594 C 5.9961164 11.924598 5.5825125 11.618139 5.296875 11.3125 C 5.0112375 11.006861 4.875 10.723532 4.875 10.5 C 4.875 9.8541667 5.2156324 9.1959771 5.6191406 8.7089844 C 5.8208948 8.465488 6.0359757 8.2678545 6.2050781 8.140625 C 6.2896293 8.0770103 6.3638467 8.0303278 6.4082031 8.0078125 C 6.4525596 7.9852972 6.4809028 8 6.375 8 z"/></svg>