<?xml version="1.0"?><svg fill="#000000" xmlns="http://www.w3.org/2000/svg"  viewBox="0 0 16 16" width="50px" height="50px">    <path d="M12.983,2.624c0-0.029,0-0.063,0-0.101c0-0.276-0.224-0.5-0.5-0.5c-1.931,0-2.917,2.562-3.87,4.094 C8.165,6.839,7.701,7.585,7.145,8.15c-1.02,1.039-1.931,1.688-2.736,2.26c-1.122,0.798-2.008,1.429-2.386,2.636 c-0.072,0.228,0.028,0.475,0.238,0.589c0.417,0.227,1.058,0.351,1.826,0.355C5.75,14,8.809,13.275,10.75,11 C12.459,8.996,13,7.625,13,2.75C13,2.706,12.994,2.663,12.983,2.624z M5.5,13C5.224,13,5,12.776,5,12.5C5,12.224,5.224,12,5.5,12 S6,12.224,6,12.5C6,12.776,5.776,13,5.5,13z M7.5,12C7.224,12,7,11.776,7,11.5C7,11.224,7.224,11,7.5,11S8,11.224,8,11.5 C8,11.776,7.776,12,7.5,12z M9.5,11C9.224,11,9,10.776,9,10.5C9,10.224,9.224,10,9.5,10s0.5,0.224,0.5,0.5 C10,10.776,9.776,11,9.5,11z M10.5,9C10.224,9,10,8.776,10,8.5C10,8.224,10.224,8,10.5,8S11,8.224,11,8.5C11,8.776,10.776,9,10.5,9z M11.5,7C11.224,7,11,6.776,11,6.5C11,6.224,11.224,6,11.5,6S12,6.224,12,6.5C12,6.776,11.776,7,11.5,7z M11.5,5 C11.224,5,11,4.776,11,4.5C11,4.224,11.224,4,11.5,4S12,4.224,12,4.5C12,4.776,11.776,5,11.5,5z"/></svg>