<svg xmlns="http://www.w3.org/2000/svg" version="1.1" xmlns:xlink="http://www.w3.org/1999/xlink" xmlns:svgjs="http://svgjs.com/svgjs" width="1000" height="1000"><rect width="1000" height="1000" rx="200" ry="200" fill="#88e2a1"></rect><g transform="matrix(0.6257822277847309,0,0,0.6257822277847309,0.012722125190691713,0.013455874332066742)"><svg xmlns="http://www.w3.org/2000/svg" version="1.1" xmlns:xlink="http://www.w3.org/1999/xlink" xmlns:svgjs="http://svgjs.com/svgjs" width="1598" height="1598"><svg width="1598" height="1598" viewBox="0 0 1598 1598" fill="none" xmlns="http://www.w3.org/2000/svg">
<g clip-path="url(#clip0_2273_2865)">
<g opacity="0.5">
<circle cx="411.69" cy="411.69" r="397.412" transform="matrix(-1 -2.87868e-08 -2.87868e-08 1 1207.29 392.134)" stroke="url(#paint0_linear_2273_2865)" stroke-opacity="0.15" stroke-width="28.556"></circle>
<circle cx="411.69" cy="411.69" r="397.412" transform="matrix(-1 -2.87868e-08 -2.87868e-08 1 1209.15 388.925)" stroke="url(#paint1_linear_2273_2865)" stroke-opacity="0.15" stroke-width="28.556"></circle>
<circle cx="580.201" cy="580.201" r="565.923" transform="matrix(-1 -2.87868e-08 -2.87868e-08 1 1377.66 220.415)" stroke="url(#paint2_linear_2273_2865)" stroke-opacity="0.15" stroke-width="28.556"></circle>
<circle cx="741.592" cy="741.592" r="727.314" transform="matrix(-1 -2.87868e-08 -2.87868e-08 1 1540.63 57.4438)" stroke="url(#paint3_linear_2273_2865)" stroke-opacity="0.1" stroke-width="28.556"></circle>
<circle cx="904.036" cy="904.036" r="889.758" transform="matrix(-1 -2.87868e-08 -2.87868e-08 1 1703.07 -105)" stroke="url(#paint4_linear_2273_2865)" stroke-opacity="0.05" stroke-width="28.556"></circle>
</g>
<mask id="path-6-inside-1_2273_2865" fill="white">
<path fill-rule="evenodd" clip-rule="evenodd" d="M1175.13 520.5L495.521 414.786L399.627 1040.71L399.912 1040.75C399.817 1041.41 399.728 1042.07 399.644 1042.72C381.71 1158.01 518.724 1262.27 706.373 1291.46C893.688 1320.6 1060.09 1251.09 1078.52 1136.17L1078.69 1136.19L1175.13 520.5Z"></path>
</mask>
<path fill-rule="evenodd" clip-rule="evenodd" d="M1175.13 520.5L495.521 414.786L399.627 1040.71L399.912 1040.75C399.817 1041.41 399.728 1042.07 399.644 1042.72C381.71 1158.01 518.724 1262.27 706.373 1291.46C893.688 1320.6 1060.09 1251.09 1078.52 1136.17L1078.69 1136.19L1175.13 520.5Z" fill="#C5FFD4"></path>
<path d="M495.521 414.786L504.368 357.91L447.362 349.043L438.625 406.069L495.521 414.786ZM1175.13 520.5L1231.99 529.407L1240.91 472.481L1183.97 463.624L1175.13 520.5ZM399.627 1040.71L342.731 1032L333.906 1089.6L391.614 1097.71L399.627 1040.71ZM399.912 1040.75L456.883 1048.96L465.122 991.795L407.925 983.754L399.912 1040.75ZM399.644 1042.72L456.52 1051.57L456.639 1050.8L456.738 1050.03L399.644 1042.72ZM1078.52 1136.17L1086.53 1079.17L1030.62 1071.31L1021.68 1127.06L1078.52 1136.17ZM1078.69 1136.19L1070.68 1193.19L1126.79 1201.08L1135.56 1145.1L1078.69 1136.19ZM486.674 471.662L1166.28 577.376L1183.97 463.624L504.368 357.91L486.674 471.662ZM456.523 1049.43L552.417 423.502L438.625 406.069L342.731 1032L456.523 1049.43ZM407.925 983.754L407.64 983.714L391.614 1097.71L391.899 1097.75L407.925 983.754ZM456.738 1050.03C456.783 1049.67 456.832 1049.32 456.883 1048.96L342.941 1032.54C342.803 1033.5 342.673 1034.46 342.55 1035.42L456.738 1050.03ZM715.22 1234.58C628.739 1221.13 557.616 1190.82 511.748 1154.33C465.548 1117.58 451.891 1081.32 456.52 1051.57L342.768 1033.88C329.463 1119.41 375.346 1192.93 440.082 1244.42C505.149 1296.19 596.358 1332.6 697.526 1348.33L715.22 1234.58ZM1021.68 1127.06C1016.8 1157.47 990.663 1190.9 933.605 1214.72C877.577 1238.11 800.113 1247.79 715.22 1234.58L697.526 1348.33C799.948 1364.27 899.342 1353.77 977.949 1320.96C1055.53 1288.57 1121.8 1229.79 1135.35 1145.28L1021.68 1127.06ZM1086.7 1079.19L1086.53 1079.17L1070.51 1193.17L1070.68 1193.19L1086.7 1079.19ZM1118.26 511.593L1021.83 1127.29L1135.56 1145.1L1231.99 529.407L1118.26 511.593Z" fill="black" mask="url(#path-6-inside-1_2273_2865)"></path>
<path d="M1146.7 516.063C1145.7 522.475 1140.84 531.5 1125.25 541.464C1109.71 551.398 1086.42 560.228 1055.86 566.519C994.952 579.056 911.366 580.259 820.027 566.051C728.688 551.843 649.417 525.307 595.197 494.862C567.986 479.584 548.478 464.097 536.691 449.912C524.869 435.685 522.974 425.607 523.972 419.196C524.969 412.784 529.835 403.758 545.421 393.794C560.959 383.86 584.249 375.03 614.815 368.739C675.722 356.203 759.308 354.999 850.647 369.207C941.986 383.415 1021.26 409.951 1075.48 440.396C1102.69 455.675 1122.2 471.161 1133.98 485.346C1145.8 499.574 1147.7 509.651 1146.7 516.063Z" fill="#C5FFD4" stroke="black" stroke-width="57.5597"></path>
<path d="M520.561 477.288L432.909 449.874C414.766 444.2 395.262 453.105 387.666 470.531V470.531C379.663 488.891 387.619 510.292 405.672 518.965L558.987 592.629" stroke="black" stroke-width="57.5597"></path>
<path d="M1131.65 575.509L1223.3 581.469C1242.27 582.703 1257.26 598.029 1258.08 617.021V617.021C1258.94 637.031 1243.82 654.136 1223.85 655.733L1054.3 669.299" stroke="black" stroke-width="57.5597"></path>
</g>
<defs>
<linearGradient id="paint0_linear_2273_2865" x1="411.69" y1="0" x2="411.69" y2="823.38" gradientUnits="userSpaceOnUse">
<stop></stop>
<stop offset="0.473958" stop-color="#666666"></stop>
<stop offset="1" stop-color="#4E4E4E"></stop>
</linearGradient>
<linearGradient id="paint1_linear_2273_2865" x1="411.69" y1="0" x2="411.69" y2="823.38" gradientUnits="userSpaceOnUse">
<stop></stop>
<stop offset="0.473958" stop-color="#666666"></stop>
<stop offset="1" stop-color="#4E4E4E"></stop>
</linearGradient>
<linearGradient id="paint2_linear_2273_2865" x1="580.201" y1="0" x2="580.201" y2="1160.4" gradientUnits="userSpaceOnUse">
<stop></stop>
<stop offset="0.473958" stop-color="#666666"></stop>
<stop offset="1" stop-color="#4E4E4E"></stop>
</linearGradient>
<linearGradient id="paint3_linear_2273_2865" x1="741.592" y1="0" x2="741.592" y2="1483.18" gradientUnits="userSpaceOnUse">
<stop></stop>
<stop offset="0.473958" stop-color="#666666"></stop>
<stop offset="1" stop-color="#4E4E4E"></stop>
</linearGradient>
<linearGradient id="paint4_linear_2273_2865" x1="904.036" y1="0" x2="904.036" y2="1808.07" gradientUnits="userSpaceOnUse">
<stop></stop>
<stop offset="0.473958" stop-color="#666666"></stop>
<stop offset="1" stop-color="#4E4E4E"></stop>
</linearGradient>
<clipPath id="clip0_2273_2865">
<rect width="1598" height="1598" fill="white"></rect>
</clipPath>
</defs>
</svg></svg></g></svg>