<svg width="191" height="188" viewBox="0 0 191 188" fill="none" xmlns="http://www.w3.org/2000/svg">
<path d="M57.9939 30.9166C57.9939 30.9166 70.4562 15.0424 89.143 19.2705C107.828 23.4982 149.063 34.6408 156.634 47.0375C164.206 59.4343 129.361 131.55 130.819 153.891C132.276 176.234 28.4796 163.722 34.2646 129.135C40.0497 94.5486 57.9944 30.9147 57.9944 30.9147L57.9939 30.9166Z" fill="#C5FFD4"/>
<path d="M182.095 63.6554C181.112 61.509 178.282 58.0528 170.39 59.0396L170.297 59.0536C169.635 59.1801 168.977 59.3076 168.323 59.4341C165.745 59.9373 163.278 60.4169 160.75 60.7142C161.018 59.6065 161.266 58.5807 161.491 57.6503C161.802 56.3596 162.073 55.2485 162.291 54.3386C162.684 53.0696 165.5 41.3967 141.072 28.5394L141.049 28.5277C131.151 23.5475 118.347 19.3404 105.927 16.9814C96.0534 15.1085 81.5964 13.4701 68.8045 16.3081L68.7831 16.313C62.9312 17.6979 55.5799 20.8616 53.7851 28.0736L53.6294 28.718C53.3521 29.8658 52.7306 32.4216 52.2174 34.5455C50.0043 33.0725 47.9366 31.449 45.7721 29.7497C45.2938 29.3738 44.8155 28.998 44.333 28.6231L44.2573 28.5685C37.6856 24.0872 33.5919 25.8707 31.7356 27.3311C28.1243 30.1755 27.3831 35.8744 28.7653 39.5257C31.5416 46.8534 37.4531 56.131 45.8767 60.8075C43.5954 70.3335 41.7858 77.782 39.702 86.3569C38.4906 91.3127 36.6562 98.9389 34.8802 106.315C33.189 113.34 31.4398 120.605 30.2796 125.358L30.2699 125.398C29.9593 126.842 30.047 128.241 30.1602 129.552L30.1633 129.581C30.7771 135.277 34.0018 141.258 40.0206 147.869L40.035 147.885C50.0435 158.564 63.2074 165.831 77.2416 169.219C93.1382 173.06 110.15 171.923 124.943 165.138L124.98 165.12C128.921 163.175 133.854 160.321 137.047 155.466L137.063 155.444C137.884 154.143 138.447 152.891 138.786 151.621L138.794 151.586C139.6 148.232 141.224 141.527 143.277 133.038C146.399 120.139 150.647 102.583 154.406 86.9733C163.962 86.6124 173.391 81.0793 179.165 75.8658C182.061 73.2502 184.004 67.8396 182.09 63.6602L182.095 63.6554ZM168.49 69.8404C165.704 71.7843 161.508 74.1243 157.316 74.9457C157.413 74.5434 157.515 74.124 157.616 73.7065C157.788 72.9934 157.958 72.288 158.1 71.7027C161.861 71.3846 164.713 70.9658 168.182 69.9313C168.288 69.9005 168.391 69.8687 168.49 69.8404ZM144.66 55.3357L144.394 55.4006C134.085 57.6338 121.186 56.8903 104.973 53.1308L104.903 53.1137C95.4662 50.8339 86.9619 47.7946 79.6311 44.0823C75.0723 41.744 71.654 39.546 68.8765 37.1679C66.095 34.7565 64.4663 32.2261 64.7035 30.6933C65.1674 29.2073 67.7553 27.6673 71.3339 26.7542C81.8254 24.3835 94.3853 25.0368 110.858 28.8067C120.344 31.1166 128.875 34.2028 136.207 37.9779C140.668 40.3046 144.176 42.6051 146.932 45.0062L147.056 45.1171C148.625 46.5009 151.444 48.9839 151.454 51.1132L151.331 51.588C151.28 51.7853 151.227 51.9927 151.172 52.2072C150.175 53.9943 146.734 54.8298 144.661 55.3338L144.66 55.3357ZM131.659 67.7442C137.929 67.7013 143.344 67.0905 147.8 65.9273C146.381 71.8014 144.709 78.7889 142.953 86.1333C137.112 110.543 129.855 140.867 127.325 149.451C126.553 150.542 125.45 151.529 123.69 152.71C117.921 156.274 110.574 158.585 102.441 159.388C94.948 160.131 87.1226 159.602 79.8199 157.862C67.586 154.89 56.366 148.616 48.2214 140.195C45.7737 137.58 42.8016 134.053 41.4746 129.923C41.2333 129.076 41.0959 128.366 41.1998 127.669L41.3688 126.969C47.8692 99.9549 54.5823 72.0516 61.1886 45.0244C61.3511 45.1706 61.514 45.3149 61.6793 45.4577L61.696 45.4719C79.0484 60.0763 110.021 67.7306 131.657 67.7456L131.659 67.7442ZM49.0523 47.6798C48.9616 48.0554 48.8713 48.429 48.7842 48.7894C45.5062 46.2197 42.7322 42.2402 41.0288 39.0501C41.1026 39.1204 41.1784 39.1912 41.2551 39.2662C43.9068 41.8057 46.2207 43.4543 49.5696 45.5387C49.4185 46.164 49.2356 46.921 49.0523 47.6798Z" fill="black"/>
</svg>
