<svg width="24" height="24" viewBox="0 0 24 24" fill="none" xmlns="http://www.w3.org/2000/svg">
<path d="M7.33695 3.87261C7.33695 3.87261 8.89812 1.88402 11.239 2.41369C13.5797 2.94329 18.7452 4.33914 19.6937 5.89209C20.6422 7.44504 16.2772 16.4791 16.4598 19.2778C16.6424 22.0766 3.63966 20.5093 4.36436 16.1766C5.08905 11.8439 7.33701 3.87237 7.33701 3.87237L7.33695 3.87261Z" fill="#C5FFD4"/>
<path d="M22.883 7.97418C22.7599 7.70531 22.4054 7.27235 21.4167 7.39595L21.4051 7.39771C21.3222 7.41356 21.2397 7.42953 21.1577 7.44538C20.8348 7.50842 20.5258 7.56849 20.2092 7.60574C20.2427 7.46697 20.2737 7.33848 20.3019 7.22192C20.3409 7.06023 20.3748 6.92104 20.4021 6.80706C20.4514 6.64809 20.8042 5.18581 17.744 3.57517L17.7411 3.5737C16.5012 2.94982 14.8973 2.4228 13.3414 2.12728C12.1045 1.89265 10.2934 1.68741 8.69099 2.04293L8.68831 2.04355C7.95523 2.21704 7.03433 2.61336 6.80949 3.51681L6.78998 3.59754C6.75525 3.74132 6.67739 4.06149 6.61311 4.32755C6.33587 4.14303 6.07684 3.93965 5.80569 3.72677C5.74578 3.67969 5.68586 3.63261 5.62541 3.58565L5.61594 3.57881C4.79269 3.01743 4.27987 3.24085 4.04733 3.4238C3.59493 3.78012 3.50209 4.49403 3.67523 4.95143C4.02302 5.86937 4.76356 7.03159 5.8188 7.61742C5.53302 8.81075 5.30632 9.74384 5.04529 10.818C4.89353 11.4388 4.66374 12.3942 4.44126 13.3182C4.2294 14.1982 4.01027 15.1084 3.86493 15.7037L3.86372 15.7087C3.8248 15.8897 3.83579 16.065 3.84997 16.2291L3.85036 16.2328C3.92725 16.9462 4.33122 17.6955 5.0852 18.5238L5.087 18.5257C6.34078 19.8635 7.98983 20.7738 9.74791 21.1983C11.7393 21.6794 13.8704 21.537 15.7236 20.687L15.7281 20.6848C16.2219 20.4411 16.8399 20.0836 17.2398 19.4755L17.2418 19.4726C17.3446 19.3097 17.4151 19.1528 17.4576 18.9937L17.4586 18.9894C17.5597 18.5692 17.7631 17.7293 18.0203 16.6658C18.4114 15.05 18.9435 12.8507 19.4144 10.8952C20.6115 10.85 21.7927 10.1569 22.516 9.5038C22.8788 9.17614 23.1222 8.49834 22.8824 7.97478L22.883 7.97418ZM21.1788 8.74898C20.8297 8.9925 20.3041 9.28564 19.7789 9.38854C19.7911 9.33814 19.8038 9.2856 19.8164 9.23329C19.838 9.14397 19.8594 9.0556 19.8771 8.98227C20.3483 8.94243 20.7056 8.88997 21.1401 8.76037C21.1534 8.75651 21.1663 8.75254 21.1788 8.74898ZM18.1935 6.93196L18.1602 6.94009C16.8688 7.21985 15.2529 7.12672 13.2219 6.65575L13.2131 6.65362C12.0309 6.36802 10.9656 5.98728 10.0473 5.52224C9.47616 5.22931 9.04795 4.95397 8.70001 4.65606C8.35157 4.35398 8.14754 4.037 8.17725 3.84498C8.23537 3.65883 8.55955 3.46592 9.00785 3.35153C10.3221 3.05455 11.8955 3.13639 13.9591 3.60865C15.1474 3.89801 16.2161 4.28463 17.1345 4.75753C17.6934 5.049 18.1329 5.33719 18.4781 5.63798L18.4937 5.65187C18.6902 5.82523 19.0433 6.13626 19.0446 6.403L19.0292 6.46248C19.0227 6.48721 19.0162 6.51318 19.0092 6.54006C18.8843 6.76393 18.4533 6.86859 18.1936 6.93173L18.1935 6.93196ZM16.5648 8.48639C17.3503 8.48102 18.0286 8.4045 18.5869 8.25879C18.4091 8.99465 18.1997 9.86997 17.9797 10.79C17.248 13.8478 16.3388 17.6466 16.0219 18.7219C15.9252 18.8586 15.7871 18.9822 15.5666 19.1301C14.8439 19.5766 13.9235 19.8661 12.9046 19.9668C11.966 20.0598 10.9857 19.9935 10.0709 19.7756C8.53835 19.4033 7.1328 18.6173 6.11252 17.5624C5.80589 17.2348 5.43357 16.793 5.26735 16.2756C5.23712 16.1694 5.2199 16.0806 5.23292 15.9932L5.25409 15.9056C6.0684 12.5215 6.90936 9.02598 7.73694 5.64026C7.75729 5.65857 7.7777 5.67665 7.7984 5.69454L7.8005 5.69632C9.97426 7.52582 13.8542 8.48469 16.5645 8.48657L16.5648 8.48639ZM6.21661 5.9729C6.20524 6.01995 6.19393 6.06676 6.18303 6.1119C5.77238 5.78999 5.42488 5.29148 5.2115 4.89185C5.22075 4.90066 5.23023 4.90952 5.23984 4.91892C5.57202 5.23704 5.86189 5.44357 6.28141 5.70468C6.26248 5.78302 6.23958 5.87784 6.21661 5.9729Z" fill="black"/>
</svg>
