<svg fill="#000000" xmlns="http://www.w3.org/2000/svg"  viewBox="0 0 16 16" width="50px" height="50px"><path d="M 14 0.929688 L 10.394531 3.9375 L 7.351563 2.921875 L 4.351563 6.171875 L 1 5.054688 L 1 12.5 C 1 13.324219 1.675781 14 2.5 14 L 12.5 14 C 13.324219 14 14 13.324219 14 12.5 Z M 13 3.070313 L 13 7.867188 L 10.472656 9.882813 L 7.5 7.898438 L 4.347656 10 L 2 10 L 2 6.445313 L 4.648438 7.328125 L 7.648438 4.078125 L 10.605469 5.0625 Z M 7.5 9.101563 L 10.527344 11.121094 L 13 9.148438 L 13 12.5 C 13 12.78125 12.78125 13 12.5 13 L 2.5 13 C 2.21875 13 2 12.78125 2 12.5 L 2 11 L 4.652344 11 Z"/></svg>