<svg fill="#000000" xmlns="http://www.w3.org/2000/svg"  viewBox="0 0 16 16" width="50px" height="50px"><path d="M 6 1 L 6 2.515625 C 5.449219 2.933594 5.078125 3.574219 5.019531 4.304688 C 4.742188 4.675781 4.226563 5.261719 3.785156 6.078125 L 2.726563 5.023438 L 2.023438 5.726563 L 3.355469 7.0625 C 3.15625 7.628906 3.019531 8.269531 3.007813 9 L 1 9 L 1 10 L 3.0625 10 C 3.125 10.652344 3.269531 11.257813 3.472656 11.820313 L 2.023438 13.269531 L 2.726563 13.980469 L 3.921875 12.785156 C 4.011719 12.941406 4.09375 13.105469 4.195313 13.25 C 4.917969 14.246094 6 14.851563 7.242188 14.9375 C 7.246094 14.9375 7.25 14.9375 7.25 14.9375 C 7.261719 14.945313 7.273438 14.953125 7.289063 14.957031 C 7.296875 14.964844 7.308594 14.96875 7.316406 14.96875 C 7.328125 14.976563 7.335938 14.980469 7.347656 14.984375 C 7.367188 14.988281 7.390625 14.996094 7.414063 15 C 7.421875 15 7.433594 15.003906 7.445313 15.003906 C 7.464844 15.007813 7.488281 15.007813 7.511719 15.003906 C 7.546875 15.003906 7.578125 15 7.609375 14.996094 C 7.648438 14.984375 7.6875 14.972656 7.722656 14.953125 C 7.730469 14.949219 7.742188 14.945313 7.75 14.9375 C 7.753906 14.9375 7.753906 14.9375 7.757813 14.9375 C 9 14.851563 10.082031 14.246094 10.804688 13.25 C 10.90625 13.105469 10.988281 12.941406 11.078125 12.785156 L 12.269531 13.980469 L 12.980469 13.269531 L 11.527344 11.820313 C 11.730469 11.257813 11.875 10.652344 11.9375 10 L 14 10 L 14 9 L 11.988281 9 C 11.980469 8.308594 11.855469 7.6875 11.671875 7.140625 L 12.992188 5.714844 L 12.257813 5.035156 L 11.234375 6.132813 C 10.78125 5.277344 10.257813 4.679688 9.976563 4.296875 C 9.914063 3.574219 9.550781 2.933594 9 2.515625 L 9 1 L 8 1 L 8 2.050781 C 7.839844 2.019531 7.671875 2 7.5 2 C 7.328125 2 7.160156 2.019531 7 2.050781 L 7 1 Z M 7.5 3 C 8.160156 3 8.707031 3.417969 8.910156 4 L 6.089844 4 C 6.292969 3.417969 6.839844 3 7.5 3 Z M 5.757813 5 L 7 5 L 7 13.875 C 6.207031 13.738281 5.519531 13.367188 5.007813 12.660156 C 4.382813 11.804688 4 10.550781 4 9.09375 C 4 7.03125 5.09375 5.871094 5.757813 5 Z M 8 5 L 9.242188 5 C 9.90625 5.871094 11 7.03125 11 9.09375 C 11 10.550781 10.617188 11.804688 9.992188 12.660156 C 9.480469 13.367188 8.792969 13.738281 8 13.875 Z"/></svg>