<svg fill="#000000" xmlns="http://www.w3.org/2000/svg"  viewBox="0 0 16 16" width="50px" height="50px"><path d="M 7.5 1 C 3.917969 1 1 3.917969 1 7.5 C 1 11.082031 3.917969 14 7.5 14 C 11.082031 14 14 11.082031 14 7.5 C 14 3.917969 11.082031 1 7.5 1 Z M 7.5 2 C 10.542969 2 13 4.457031 13 7.5 C 13 10.542969 10.542969 13 7.5 13 C 4.457031 13 2 10.542969 2 7.5 C 2 4.457031 4.457031 2 7.5 2 Z M 5 5.023438 C 4.449219 5.023438 4 5.46875 4 6.023438 C 4 6.574219 4.449219 7.023438 5 7.023438 C 5.550781 7.023438 6 6.574219 6 6.023438 C 6 5.46875 5.550781 5.023438 5 5.023438 Z M 10 5.023438 C 9.449219 5.023438 9 5.46875 9 6.023438 C 9 6.574219 9.449219 7.023438 10 7.023438 C 10.550781 7.023438 11 6.574219 11 6.023438 C 11 5.46875 10.550781 5.023438 10 5.023438 Z M 9.53125 8.945313 C 9.53125 8.945313 9.449219 9.179688 9.148438 9.453125 C 8.84375 9.730469 8.359375 10.019531 7.5 10.019531 C 6.605469 10.019531 6.125 9.730469 5.835938 9.460938 C 5.542969 9.1875 5.472656 8.960938 5.472656 8.960938 L 4.527344 9.289063 C 4.527344 9.289063 4.695313 9.761719 5.148438 10.1875 C 5.605469 10.613281 6.375 11.019531 7.5 11.019531 C 8.597656 11.019531 9.363281 10.613281 9.820313 10.191406 C 10.28125 9.769531 10.46875 9.304688 10.46875 9.304688 Z"/></svg>