<svg fill="#000000" xmlns="http://www.w3.org/2000/svg"  viewBox="0 0 16 16" width="50px" height="50px"><path d="M 11.5 1.0039062 C 11.115096 1.0039064 10.730199 1.1487077 10.439453 1.4394531 C 10.247788 1.6311183 10.125863 1.8648021 10.060547 2.1113281 C 9.8815363 2.0403161 9.6904116 2.0039062 9.5 2.0039062 C 9.115096 2.0039062 8.7301985 2.1487077 8.4394531 2.4394531 C 7.8579623 3.020944 7.8579623 3.979056 8.4394531 4.5605469 L 9.5859375 5.7070312 L 5.7070312 9.5859375 L 4.5605469 8.4394531 C 4.2698015 8.1487077 3.884904 8.0039062 3.5 8.0039062 C 3.115096 8.0039062 2.7301985 8.1487077 2.4394531 8.4394531 C 2.0048763 8.8740301 1.8963434 9.5196775 2.1113281 10.060547 C 1.8648021 10.125693 1.6311183 10.247788 1.4394531 10.439453 C 0.85796233 11.020944 0.85796232 11.979056 1.4394531 12.560547 L 2.0859375 13.207031 L 1.0214844 14.271484 L 1.7285156 14.978516 L 2.7929688 13.914062 L 3.4394531 14.560547 C 4.020944 15.142038 4.979056 15.142038 5.5605469 14.560547 C 5.751784 14.369309 5.8749643 14.134896 5.9414062 13.888672 C 6.4819167 14.102727 7.1264379 13.994656 7.5605469 13.560547 C 7.8510365 13.270057 8 12.883604 8 12.5 C 8 12.116396 7.8510365 11.729943 7.5605469 11.439453 L 6.4140625 10.292969 L 10.292969 6.4140625 L 11.439453 7.5605469 C 11.729943 7.8510365 12.116396 8 12.5 8 C 12.883604 8 13.270057 7.8510365 13.560547 7.5605469 C 13.994656 7.1264379 14.102727 6.4819167 13.888672 5.9414062 C 14.134896 5.8749643 14.369309 5.751784 14.560547 5.5605469 C 15.142038 4.979056 15.142038 4.020944 14.560547 3.4394531 L 13.914062 2.7929688 L 14.978516 1.7285156 L 14.271484 1.0214844 L 13.207031 2.0859375 L 12.560547 1.4394531 C 12.269801 1.1487077 11.884904 1.0039063 11.5 1.0039062 z M 11.5 1.9960938 C 11.626631 1.9960938 11.753261 2.0462298 11.853516 2.1464844 L 13.853516 4.1464844 C 14.054025 4.3469935 14.054025 4.6530065 13.853516 4.8535156 C 13.754005 4.953026 13.628396 5 13.5 5 C 13.371604 5 13.245995 4.953026 13.146484 4.8535156 L 12.314453 4.0214844 L 11.146484 2.8535156 C 10.945975 2.6530065 10.945975 2.3469935 11.146484 2.1464844 C 11.246739 2.0462298 11.373369 1.9960938 11.5 1.9960938 z M 9.5 2.9960938 C 9.6266305 2.9960938 9.7532611 3.0462298 9.8535156 3.1464844 L 12.853516 6.1464844 C 13.054025 6.3469935 13.054025 6.6530065 12.853516 6.8535156 C 12.754005 6.953026 12.628396 7 12.5 7 C 12.371604 7 12.245995 6.953026 12.146484 6.8535156 L 9.1464844 3.8535156 C 8.9459752 3.6530065 8.9459752 3.3469935 9.1464844 3.1464844 C 9.2467389 3.0462298 9.3733695 2.9960938 9.5 2.9960938 z M 3.5 8.9960938 C 3.6266305 8.9960938 3.7532611 9.0462298 3.8535156 9.1464844 L 6.8535156 12.146484 C 6.953026 12.245995 7 12.371604 7 12.5 C 7 12.628396 6.953026 12.754005 6.8535156 12.853516 C 6.6530065 13.054025 6.3469935 13.054025 6.1464844 12.853516 L 3.1464844 9.8535156 C 2.9459752 9.6530065 2.9459752 9.3469935 3.1464844 9.1464844 C 3.2467389 9.0462298 3.3733695 8.9960938 3.5 8.9960938 z M 2.5 10.996094 C 2.6266305 10.996094 2.7532611 11.04623 2.8535156 11.146484 L 4.0214844 12.314453 L 4.8535156 13.146484 C 4.953026 13.245995 5 13.371604 5 13.5 C 5 13.628396 4.953026 13.754005 4.8535156 13.853516 C 4.6530065 14.054025 4.3469935 14.054025 4.1464844 13.853516 L 2.1464844 11.853516 C 1.9459752 11.653006 1.9459752 11.346994 2.1464844 11.146484 C 2.2467389 11.04623 2.3733695 10.996094 2.5 10.996094 z"/></svg>