<svg width="14" height="13" viewBox="0 0 14 13" fill="none" xmlns="http://www.w3.org/2000/svg">
<path d="M6.99365 12.5552C7.07829 12.5552 7.1735 12.5298 7.2793 12.479C7.38932 12.4282 7.493 12.3711 7.59033 12.3076C8.77523 11.5459 9.80143 10.7461 10.6689 9.9082C11.5407 9.07031 12.2157 8.20703 12.6938 7.31836C13.172 6.42969 13.4111 5.53467 13.4111 4.6333C13.4111 4.04932 13.3159 3.51611 13.1255 3.03369C12.9393 2.54704 12.6812 2.12809 12.3511 1.77686C12.021 1.42562 11.6359 1.15479 11.1958 0.964355C10.7557 0.769694 10.2817 0.672363 9.77393 0.672363C9.14339 0.672363 8.59326 0.833171 8.12354 1.15479C7.65804 1.47217 7.28141 1.89111 6.99365 2.41162C6.71436 1.89535 6.33984 1.4764 5.87012 1.15479C5.40039 0.833171 4.85026 0.672363 4.21973 0.672363C3.71191 0.672363 3.23796 0.769694 2.79785 0.964355C2.36198 1.15479 1.97689 1.42562 1.64258 1.77686C1.3125 2.12809 1.05225 2.54704 0.861816 3.03369C0.675618 3.51611 0.58252 4.04932 0.58252 4.6333C0.58252 5.53467 0.819499 6.42969 1.29346 7.31836C1.77165 8.20703 2.44661 9.07031 3.31836 9.9082C4.19434 10.7461 5.22477 11.5459 6.40967 12.3076C6.50277 12.3711 6.60433 12.4282 6.71436 12.479C6.82438 12.5298 6.91748 12.5552 6.99365 12.5552Z" fill="black"/>
</svg>
