<?xml version="1.0" encoding="UTF-8"?><svg id="a" xmlns="http://www.w3.org/2000/svg" viewBox="0 0 1089.25 1103.34"><defs><style>.b{fill:#c5ffd4;}.c{fill-rule:evenodd;}</style></defs><path class="b" d="M939.5,147.56l-788.63-.66,1.06,726.08h.33c0,.75,.02,1.51,.04,2.27-.11,133.79,173.42,227.91,391.17,228.09,217.37,.18,393.74-107.74,394.47-241.2h.21l1.35-714.58Z"/><g><path class="b" d="M906.51,147.51c0,7.44-3.94,18.52-19.85,32.54-15.87,13.98-40.71,28.07-74.24,40.55-66.82,24.88-161.32,40.9-267.32,40.81-105.99-.09-200.47-16.26-267.24-41.26-33.51-12.54-58.33-26.67-74.17-40.68-15.89-14.05-19.8-25.14-19.8-32.58,0-7.44,3.94-18.52,19.85-32.54,15.87-13.98,40.71-28.07,74.24-40.56,66.82-24.88,161.32-40.9,267.31-40.81,105.99,.09,200.47,16.26,267.25,41.26,33.51,12.54,58.33,26.67,74.17,40.68,15.89,14.05,19.8,25.14,19.8,32.58Z"/><path d="M545.98,294.42h-.91c-105.33-.09-204.33-15.48-278.79-43.35-36.2-13.55-64.62-29.32-84.47-46.86-20.55-18.17-30.96-37.45-30.94-57.33,.02-19.88,10.46-39.15,31.04-57.28,19.87-17.51,48.32-33.23,84.54-46.72C340.75,15.22,439.43,0,544.41,0h.91c105.33,.09,204.33,15.48,278.79,43.35,36.2,13.55,64.62,29.32,84.46,46.86,20.55,18.17,30.96,37.45,30.94,57.33h0c-.02,19.88-10.46,39.15-31.04,57.28-19.88,17.51-48.32,33.23-84.54,46.72-74.29,27.66-172.97,42.88-277.95,42.88ZM218.1,146.94c1.28,1.75,3.55,4.38,7.44,7.83,13.39,11.84,36.08,24.09,63.88,34.5,66.28,24.81,159.48,39.08,255.7,39.16,.27,0,.55,0,.82,0,95.94,0,188.82-14.11,254.96-38.74,27.82-10.36,50.53-22.57,63.94-34.39,3.9-3.43,6.17-6.07,7.45-7.81-1.28-1.75-3.55-4.39-7.44-7.83-13.39-11.84-36.08-24.09-63.88-34.5-66.28-24.81-159.48-39.08-255.71-39.16-.27,0-.55,0-.82,0-95.94,0-188.82,14.11-254.95,38.74-27.83,10.36-50.53,22.58-63.94,34.39-3.9,3.44-6.17,6.07-7.45,7.81Zm-1.55,2.51h0Zm0-5.03h0Z"/></g><path class="c" d="M2.51,220.57c9.84-37.37,46.26-61.32,84.48-55.56l104.13,15.7c18.02,2.72,30.43,19.53,27.71,37.55-2.72,18.02-19.53,30.43-37.55,27.71l-104.13-15.7,4.92-32.63-4.92,32.63c-4.89-.74-9.55,2.33-10.81,7.11-1.33,5.04,1.57,10.23,6.56,11.74l186.64,56.6c17.44,5.29,27.29,23.72,22,41.16-5.29,17.44-23.71,27.29-41.16,22l-186.64-56.6C14.78,300.46-7.86,259.94,2.51,220.57Z"/><path class="c" d="M1023.05,248.83c-.97-4.85-5.43-8.2-10.36-7.76l-104.89,9.31c-18.15,1.61-34.18-11.8-35.79-29.95-1.61-18.15,11.8-34.18,29.95-35.79l104.89-9.31c38.5-3.42,73.39,22.71,80.93,60.62,7.95,39.93-17.12,79-56.73,88.41l-189.75,45.09c-17.73,4.21-35.52-6.74-39.74-24.48-4.21-17.73,6.74-35.52,24.48-39.74l189.75-45.09c5.07-1.2,8.28-6.21,7.26-11.32Z"/><path class="c" d="M873.37,147.5h-.13v66h.13l-1.12,592.02-.31,56.25c-.19,35.32-23.96,77.79-84.44,114.78-59.39,36.32-145.47,60.87-243.98,60.79-100.35-.09-186.26-21.96-244.63-55.27-58.79-33.55-80.62-72.24-80.6-106.77v-.89l-.02-.89-.4-25.19-.81-563.9h-.1V146.95l-66.1-.06,1.47,731.99c3.01,131.85,175.36,224.27,391.13,224.45,217.37,.18,393.74-107.74,394.47-241.2h.21l1.35-714.58-66.12-.06Z"/></svg>