<svg width="827" height="309" viewBox="0 0 827 309" fill="none" xmlns="http://www.w3.org/2000/svg">
<path fill-rule="evenodd" clip-rule="evenodd" d="M756.151 154.582C756.151 152.469 752.419 149.992 748.334 146.38C736.022 135.494 714.242 122.525 681.375 110.223C616.161 85.8147 521.421 69.2668 413.363 69.1765C305.305 69.0863 210.537 85.4759 145.282 109.776C112.395 122.022 90.5931 134.955 78.2627 145.82C74.1712 149.426 70.4325 151.82 70.4325 154.01C70.4325 156.319 74.1636 158.6 78.249 162.212C90.5613 173.098 112.341 186.067 145.208 198.368C210.422 222.777 305.162 239.325 413.22 239.415C521.278 239.506 616.046 223.116 681.301 198.816C714.188 186.57 735.99 173.637 748.32 162.772C752.412 159.166 756.151 156.695 756.151 154.582ZM413.163 308.591C641.417 308.782 826.512 239.856 826.583 154.641C826.654 69.4261 641.675 0.191049 413.42 0.000394566C185.166 -0.19026 0.0711983 68.7356 2.05369e-05 153.951C-0.0711572 239.166 184.908 308.401 413.163 308.591Z" fill="black"/>
<path fill-rule="evenodd" clip-rule="evenodd" d="M751.093 148.733C753.957 151.128 756.151 152.962 756.151 154.582C756.151 156.201 753.955 158.031 751.087 160.42C750.213 161.149 749.276 161.929 748.32 162.771C735.99 173.637 714.188 186.569 681.301 198.816C616.046 223.116 521.278 239.505 413.22 239.415C305.162 239.325 210.422 222.777 145.208 198.368C112.341 186.067 90.5612 173.098 78.2489 162.212C77.2191 161.301 76.2118 160.475 75.2812 159.712C72.5196 157.448 70.4324 155.736 70.4324 154.009C70.4324 152.349 72.5831 150.57 75.4073 148.235C76.3067 147.491 77.2744 146.691 78.2626 145.82C90.593 134.955 112.395 122.022 145.282 109.776C210.537 85.4758 305.305 69.0861 413.363 69.1764C521.42 69.2667 616.161 85.8146 681.375 110.223C714.242 122.525 736.022 135.494 748.334 146.38C749.287 147.223 750.221 148.004 751.093 148.733Z" fill="#C5FFD4"/>
<path d="M273.562 144.642C273.562 115.646 302.861 56.5991 408.791 56.5991C514.721 56.5991 553.412 115.119 553.412 144.642" stroke="#414141" stroke-width="44"/>
</svg>
