<?xml version="1.0" encoding="UTF-8"?><svg id="a" xmlns="http://www.w3.org/2000/svg" viewBox="0 0 656.38 808.75"><defs><style>.b{fill:#c5ffd4;}</style></defs><path class="b" d="M0,55.83H.1L.91,619.74l.4,25.19,.02,.89v.89c-.03,34.53,21.8,73.22,80.59,106.77,58.37,33.31,144.28,55.18,244.63,55.27,98.51,.08,184.59-24.47,243.98-60.79,60.48-36.99,84.24-79.45,84.44-114.78l.31-56.25L656.38,.52c-14.37,8.02-30.86,15.52-49.41,22.43-74.29,27.66-172.97,42.88-277.95,42.88h-.91c-105.33-.09-204.33-15.48-278.79-43.35C30.8,15.55,14.34,8.03,0,0V55.83Z"/></svg>